%TF.GenerationSoftware,KiCad,Pcbnew,(5.1.6-0)*%
%TF.CreationDate,2022-09-04T14:31:22+02:00*%
%TF.ProjectId,ScsiTerm,53637369-5465-4726-9d2e-6b696361645f,rev?*%
%TF.SameCoordinates,Original*%
%TF.FileFunction,Copper,L1,Top*%
%TF.FilePolarity,Positive*%
%FSLAX46Y46*%
G04 Gerber Fmt 4.6, Leading zero omitted, Abs format (unit mm)*
G04 Created by KiCad (PCBNEW (5.1.6-0)) date 2022-09-04 14:31:22*
%MOMM*%
%LPD*%
G01*
G04 APERTURE LIST*
%TA.AperFunction,SMDPad,CuDef*%
%ADD10R,1.500000X2.000000*%
%TD*%
%TA.AperFunction,SMDPad,CuDef*%
%ADD11R,3.800000X2.000000*%
%TD*%
%TA.AperFunction,SMDPad,CuDef*%
%ADD12R,1.846667X3.480000*%
%TD*%
%TA.AperFunction,ViaPad*%
%ADD13C,0.800000*%
%TD*%
%TA.AperFunction,Conductor*%
%ADD14C,0.250000*%
%TD*%
%TA.AperFunction,Conductor*%
%ADD15C,0.400000*%
%TD*%
%TA.AperFunction,Conductor*%
%ADD16C,0.254000*%
%TD*%
G04 APERTURE END LIST*
D10*
%TO.P,U1,1*%
%TO.N,Net-(C3-Pad1)*%
X149950000Y-53450000D03*
%TO.P,U1,3*%
%TO.N,+5V*%
X154550000Y-53450000D03*
%TO.P,U1,2*%
%TO.N,/2.85V*%
X152250000Y-53450000D03*
D11*
X152250000Y-47150000D03*
%TD*%
%TO.P,R21,2*%
%TO.N,/2.85V*%
%TA.AperFunction,SMDPad,CuDef*%
G36*
G01*
X151425000Y-56450001D02*
X151425000Y-55549999D01*
G75*
G02*
X151674999Y-55300000I249999J0D01*
G01*
X152325001Y-55300000D01*
G75*
G02*
X152575000Y-55549999I0J-249999D01*
G01*
X152575000Y-56450001D01*
G75*
G02*
X152325001Y-56700000I-249999J0D01*
G01*
X151674999Y-56700000D01*
G75*
G02*
X151425000Y-56450001I0J249999D01*
G01*
G37*
%TD.AperFunction*%
%TO.P,R21,1*%
%TO.N,Net-(C3-Pad1)*%
%TA.AperFunction,SMDPad,CuDef*%
G36*
G01*
X149375000Y-56450001D02*
X149375000Y-55549999D01*
G75*
G02*
X149624999Y-55300000I249999J0D01*
G01*
X150275001Y-55300000D01*
G75*
G02*
X150525000Y-55549999I0J-249999D01*
G01*
X150525000Y-56450001D01*
G75*
G02*
X150275001Y-56700000I-249999J0D01*
G01*
X149624999Y-56700000D01*
G75*
G02*
X149375000Y-56450001I0J249999D01*
G01*
G37*
%TD.AperFunction*%
%TD*%
%TO.P,R20,2*%
%TO.N,Net-(C3-Pad1)*%
%TA.AperFunction,SMDPad,CuDef*%
G36*
G01*
X147449999Y-57375000D02*
X148350001Y-57375000D01*
G75*
G02*
X148600000Y-57624999I0J-249999D01*
G01*
X148600000Y-58275001D01*
G75*
G02*
X148350001Y-58525000I-249999J0D01*
G01*
X147449999Y-58525000D01*
G75*
G02*
X147200000Y-58275001I0J249999D01*
G01*
X147200000Y-57624999D01*
G75*
G02*
X147449999Y-57375000I249999J0D01*
G01*
G37*
%TD.AperFunction*%
%TO.P,R20,1*%
%TO.N,GND*%
%TA.AperFunction,SMDPad,CuDef*%
G36*
G01*
X147449999Y-55325000D02*
X148350001Y-55325000D01*
G75*
G02*
X148600000Y-55574999I0J-249999D01*
G01*
X148600000Y-56225001D01*
G75*
G02*
X148350001Y-56475000I-249999J0D01*
G01*
X147449999Y-56475000D01*
G75*
G02*
X147200000Y-56225001I0J249999D01*
G01*
X147200000Y-55574999D01*
G75*
G02*
X147449999Y-55325000I249999J0D01*
G01*
G37*
%TD.AperFunction*%
%TD*%
%TO.P,C3,2*%
%TO.N,GND*%
%TA.AperFunction,SMDPad,CuDef*%
G36*
G01*
X151425000Y-58750001D02*
X151425000Y-57849999D01*
G75*
G02*
X151674999Y-57600000I249999J0D01*
G01*
X152325001Y-57600000D01*
G75*
G02*
X152575000Y-57849999I0J-249999D01*
G01*
X152575000Y-58750001D01*
G75*
G02*
X152325001Y-59000000I-249999J0D01*
G01*
X151674999Y-59000000D01*
G75*
G02*
X151425000Y-58750001I0J249999D01*
G01*
G37*
%TD.AperFunction*%
%TO.P,C3,1*%
%TO.N,Net-(C3-Pad1)*%
%TA.AperFunction,SMDPad,CuDef*%
G36*
G01*
X149375000Y-58750001D02*
X149375000Y-57849999D01*
G75*
G02*
X149624999Y-57600000I249999J0D01*
G01*
X150275001Y-57600000D01*
G75*
G02*
X150525000Y-57849999I0J-249999D01*
G01*
X150525000Y-58750001D01*
G75*
G02*
X150275001Y-59000000I-249999J0D01*
G01*
X149624999Y-59000000D01*
G75*
G02*
X149375000Y-58750001I0J249999D01*
G01*
G37*
%TD.AperFunction*%
%TD*%
%TO.P,R18,2*%
%TO.N,/2.85V*%
%TA.AperFunction,SMDPad,CuDef*%
G36*
G01*
X161855999Y-57981000D02*
X162756001Y-57981000D01*
G75*
G02*
X163006000Y-58230999I0J-249999D01*
G01*
X163006000Y-58881001D01*
G75*
G02*
X162756001Y-59131000I-249999J0D01*
G01*
X161855999Y-59131000D01*
G75*
G02*
X161606000Y-58881001I0J249999D01*
G01*
X161606000Y-58230999D01*
G75*
G02*
X161855999Y-57981000I249999J0D01*
G01*
G37*
%TD.AperFunction*%
%TO.P,R18,1*%
%TO.N,/DB7*%
%TA.AperFunction,SMDPad,CuDef*%
G36*
G01*
X161855999Y-55931000D02*
X162756001Y-55931000D01*
G75*
G02*
X163006000Y-56180999I0J-249999D01*
G01*
X163006000Y-56831001D01*
G75*
G02*
X162756001Y-57081000I-249999J0D01*
G01*
X161855999Y-57081000D01*
G75*
G02*
X161606000Y-56831001I0J249999D01*
G01*
X161606000Y-56180999D01*
G75*
G02*
X161855999Y-55931000I249999J0D01*
G01*
G37*
%TD.AperFunction*%
%TD*%
%TO.P,R17,2*%
%TO.N,/2.85V*%
%TA.AperFunction,SMDPad,CuDef*%
G36*
G01*
X158934999Y-57972000D02*
X159835001Y-57972000D01*
G75*
G02*
X160085000Y-58221999I0J-249999D01*
G01*
X160085000Y-58872001D01*
G75*
G02*
X159835001Y-59122000I-249999J0D01*
G01*
X158934999Y-59122000D01*
G75*
G02*
X158685000Y-58872001I0J249999D01*
G01*
X158685000Y-58221999D01*
G75*
G02*
X158934999Y-57972000I249999J0D01*
G01*
G37*
%TD.AperFunction*%
%TO.P,R17,1*%
%TO.N,/DB6*%
%TA.AperFunction,SMDPad,CuDef*%
G36*
G01*
X158934999Y-55922000D02*
X159835001Y-55922000D01*
G75*
G02*
X160085000Y-56171999I0J-249999D01*
G01*
X160085000Y-56822001D01*
G75*
G02*
X159835001Y-57072000I-249999J0D01*
G01*
X158934999Y-57072000D01*
G75*
G02*
X158685000Y-56822001I0J249999D01*
G01*
X158685000Y-56171999D01*
G75*
G02*
X158934999Y-55922000I249999J0D01*
G01*
G37*
%TD.AperFunction*%
%TD*%
%TO.P,R16,2*%
%TO.N,/2.85V*%
%TA.AperFunction,SMDPad,CuDef*%
G36*
G01*
X163518001Y-61390000D02*
X162617999Y-61390000D01*
G75*
G02*
X162368000Y-61140001I0J249999D01*
G01*
X162368000Y-60489999D01*
G75*
G02*
X162617999Y-60240000I249999J0D01*
G01*
X163518001Y-60240000D01*
G75*
G02*
X163768000Y-60489999I0J-249999D01*
G01*
X163768000Y-61140001D01*
G75*
G02*
X163518001Y-61390000I-249999J0D01*
G01*
G37*
%TD.AperFunction*%
%TO.P,R16,1*%
%TO.N,/DB5*%
%TA.AperFunction,SMDPad,CuDef*%
G36*
G01*
X163518001Y-63440000D02*
X162617999Y-63440000D01*
G75*
G02*
X162368000Y-63190001I0J249999D01*
G01*
X162368000Y-62539999D01*
G75*
G02*
X162617999Y-62290000I249999J0D01*
G01*
X163518001Y-62290000D01*
G75*
G02*
X163768000Y-62539999I0J-249999D01*
G01*
X163768000Y-63190001D01*
G75*
G02*
X163518001Y-63440000I-249999J0D01*
G01*
G37*
%TD.AperFunction*%
%TD*%
%TO.P,R14,2*%
%TO.N,/2.85V*%
%TA.AperFunction,SMDPad,CuDef*%
G36*
G01*
X160597001Y-61408000D02*
X159696999Y-61408000D01*
G75*
G02*
X159447000Y-61158001I0J249999D01*
G01*
X159447000Y-60507999D01*
G75*
G02*
X159696999Y-60258000I249999J0D01*
G01*
X160597001Y-60258000D01*
G75*
G02*
X160847000Y-60507999I0J-249999D01*
G01*
X160847000Y-61158001D01*
G75*
G02*
X160597001Y-61408000I-249999J0D01*
G01*
G37*
%TD.AperFunction*%
%TO.P,R14,1*%
%TO.N,/DB3*%
%TA.AperFunction,SMDPad,CuDef*%
G36*
G01*
X160597001Y-63458000D02*
X159696999Y-63458000D01*
G75*
G02*
X159447000Y-63208001I0J249999D01*
G01*
X159447000Y-62557999D01*
G75*
G02*
X159696999Y-62308000I249999J0D01*
G01*
X160597001Y-62308000D01*
G75*
G02*
X160847000Y-62557999I0J-249999D01*
G01*
X160847000Y-63208001D01*
G75*
G02*
X160597001Y-63458000I-249999J0D01*
G01*
G37*
%TD.AperFunction*%
%TD*%
%TO.P,R11,2*%
%TO.N,/2.85V*%
%TA.AperFunction,SMDPad,CuDef*%
G36*
G01*
X155390001Y-61535000D02*
X154489999Y-61535000D01*
G75*
G02*
X154240000Y-61285001I0J249999D01*
G01*
X154240000Y-60634999D01*
G75*
G02*
X154489999Y-60385000I249999J0D01*
G01*
X155390001Y-60385000D01*
G75*
G02*
X155640000Y-60634999I0J-249999D01*
G01*
X155640000Y-61285001D01*
G75*
G02*
X155390001Y-61535000I-249999J0D01*
G01*
G37*
%TD.AperFunction*%
%TO.P,R11,1*%
%TO.N,/DB0*%
%TA.AperFunction,SMDPad,CuDef*%
G36*
G01*
X155390001Y-63585000D02*
X154489999Y-63585000D01*
G75*
G02*
X154240000Y-63335001I0J249999D01*
G01*
X154240000Y-62684999D01*
G75*
G02*
X154489999Y-62435000I249999J0D01*
G01*
X155390001Y-62435000D01*
G75*
G02*
X155640000Y-62684999I0J-249999D01*
G01*
X155640000Y-63335001D01*
G75*
G02*
X155390001Y-63585000I-249999J0D01*
G01*
G37*
%TD.AperFunction*%
%TD*%
%TO.P,R8,2*%
%TO.N,/BSY*%
%TA.AperFunction,SMDPad,CuDef*%
G36*
G01*
X148965499Y-62371500D02*
X149865501Y-62371500D01*
G75*
G02*
X150115500Y-62621499I0J-249999D01*
G01*
X150115500Y-63271501D01*
G75*
G02*
X149865501Y-63521500I-249999J0D01*
G01*
X148965499Y-63521500D01*
G75*
G02*
X148715500Y-63271501I0J249999D01*
G01*
X148715500Y-62621499D01*
G75*
G02*
X148965499Y-62371500I249999J0D01*
G01*
G37*
%TD.AperFunction*%
%TO.P,R8,1*%
%TO.N,/2.85V*%
%TA.AperFunction,SMDPad,CuDef*%
G36*
G01*
X148965499Y-60321500D02*
X149865501Y-60321500D01*
G75*
G02*
X150115500Y-60571499I0J-249999D01*
G01*
X150115500Y-61221501D01*
G75*
G02*
X149865501Y-61471500I-249999J0D01*
G01*
X148965499Y-61471500D01*
G75*
G02*
X148715500Y-61221501I0J249999D01*
G01*
X148715500Y-60571499D01*
G75*
G02*
X148965499Y-60321500I249999J0D01*
G01*
G37*
%TD.AperFunction*%
%TD*%
%TO.P,R7,2*%
%TO.N,/ACK*%
%TA.AperFunction,SMDPad,CuDef*%
G36*
G01*
X146234999Y-62435000D02*
X147135001Y-62435000D01*
G75*
G02*
X147385000Y-62684999I0J-249999D01*
G01*
X147385000Y-63335001D01*
G75*
G02*
X147135001Y-63585000I-249999J0D01*
G01*
X146234999Y-63585000D01*
G75*
G02*
X145985000Y-63335001I0J249999D01*
G01*
X145985000Y-62684999D01*
G75*
G02*
X146234999Y-62435000I249999J0D01*
G01*
G37*
%TD.AperFunction*%
%TO.P,R7,1*%
%TO.N,/2.85V*%
%TA.AperFunction,SMDPad,CuDef*%
G36*
G01*
X146234999Y-60385000D02*
X147135001Y-60385000D01*
G75*
G02*
X147385000Y-60634999I0J-249999D01*
G01*
X147385000Y-61285001D01*
G75*
G02*
X147135001Y-61535000I-249999J0D01*
G01*
X146234999Y-61535000D01*
G75*
G02*
X145985000Y-61285001I0J249999D01*
G01*
X145985000Y-60634999D01*
G75*
G02*
X146234999Y-60385000I249999J0D01*
G01*
G37*
%TD.AperFunction*%
%TD*%
%TO.P,R5,2*%
%TO.N,/RST*%
%TA.AperFunction,SMDPad,CuDef*%
G36*
G01*
X143440999Y-62426000D02*
X144341001Y-62426000D01*
G75*
G02*
X144591000Y-62675999I0J-249999D01*
G01*
X144591000Y-63326001D01*
G75*
G02*
X144341001Y-63576000I-249999J0D01*
G01*
X143440999Y-63576000D01*
G75*
G02*
X143191000Y-63326001I0J249999D01*
G01*
X143191000Y-62675999D01*
G75*
G02*
X143440999Y-62426000I249999J0D01*
G01*
G37*
%TD.AperFunction*%
%TO.P,R5,1*%
%TO.N,/2.85V*%
%TA.AperFunction,SMDPad,CuDef*%
G36*
G01*
X143440999Y-60376000D02*
X144341001Y-60376000D01*
G75*
G02*
X144591000Y-60625999I0J-249999D01*
G01*
X144591000Y-61276001D01*
G75*
G02*
X144341001Y-61526000I-249999J0D01*
G01*
X143440999Y-61526000D01*
G75*
G02*
X143191000Y-61276001I0J249999D01*
G01*
X143191000Y-60625999D01*
G75*
G02*
X143440999Y-60376000I249999J0D01*
G01*
G37*
%TD.AperFunction*%
%TD*%
%TO.P,R4,2*%
%TO.N,/I_O*%
%TA.AperFunction,SMDPad,CuDef*%
G36*
G01*
X140646999Y-62417000D02*
X141547001Y-62417000D01*
G75*
G02*
X141797000Y-62666999I0J-249999D01*
G01*
X141797000Y-63317001D01*
G75*
G02*
X141547001Y-63567000I-249999J0D01*
G01*
X140646999Y-63567000D01*
G75*
G02*
X140397000Y-63317001I0J249999D01*
G01*
X140397000Y-62666999D01*
G75*
G02*
X140646999Y-62417000I249999J0D01*
G01*
G37*
%TD.AperFunction*%
%TO.P,R4,1*%
%TO.N,/2.85V*%
%TA.AperFunction,SMDPad,CuDef*%
G36*
G01*
X140646999Y-60367000D02*
X141547001Y-60367000D01*
G75*
G02*
X141797000Y-60616999I0J-249999D01*
G01*
X141797000Y-61267001D01*
G75*
G02*
X141547001Y-61517000I-249999J0D01*
G01*
X140646999Y-61517000D01*
G75*
G02*
X140397000Y-61267001I0J249999D01*
G01*
X140397000Y-60616999D01*
G75*
G02*
X140646999Y-60367000I249999J0D01*
G01*
G37*
%TD.AperFunction*%
%TD*%
%TO.P,R2,2*%
%TO.N,/MSG*%
%TA.AperFunction,SMDPad,CuDef*%
G36*
G01*
X145357001Y-57072000D02*
X144456999Y-57072000D01*
G75*
G02*
X144207000Y-56822001I0J249999D01*
G01*
X144207000Y-56171999D01*
G75*
G02*
X144456999Y-55922000I249999J0D01*
G01*
X145357001Y-55922000D01*
G75*
G02*
X145607000Y-56171999I0J-249999D01*
G01*
X145607000Y-56822001D01*
G75*
G02*
X145357001Y-57072000I-249999J0D01*
G01*
G37*
%TD.AperFunction*%
%TO.P,R2,1*%
%TO.N,/2.85V*%
%TA.AperFunction,SMDPad,CuDef*%
G36*
G01*
X145357001Y-59122000D02*
X144456999Y-59122000D01*
G75*
G02*
X144207000Y-58872001I0J249999D01*
G01*
X144207000Y-58221999D01*
G75*
G02*
X144456999Y-57972000I249999J0D01*
G01*
X145357001Y-57972000D01*
G75*
G02*
X145607000Y-58221999I0J-249999D01*
G01*
X145607000Y-58872001D01*
G75*
G02*
X145357001Y-59122000I-249999J0D01*
G01*
G37*
%TD.AperFunction*%
%TD*%
%TO.P,R1,2*%
%TO.N,/REQ*%
%TA.AperFunction,SMDPad,CuDef*%
G36*
G01*
X142563001Y-57081000D02*
X141662999Y-57081000D01*
G75*
G02*
X141413000Y-56831001I0J249999D01*
G01*
X141413000Y-56180999D01*
G75*
G02*
X141662999Y-55931000I249999J0D01*
G01*
X142563001Y-55931000D01*
G75*
G02*
X142813000Y-56180999I0J-249999D01*
G01*
X142813000Y-56831001D01*
G75*
G02*
X142563001Y-57081000I-249999J0D01*
G01*
G37*
%TD.AperFunction*%
%TO.P,R1,1*%
%TO.N,/2.85V*%
%TA.AperFunction,SMDPad,CuDef*%
G36*
G01*
X142563001Y-59131000D02*
X141662999Y-59131000D01*
G75*
G02*
X141413000Y-58881001I0J249999D01*
G01*
X141413000Y-58230999D01*
G75*
G02*
X141662999Y-57981000I249999J0D01*
G01*
X142563001Y-57981000D01*
G75*
G02*
X142813000Y-58230999I0J-249999D01*
G01*
X142813000Y-58881001D01*
G75*
G02*
X142563001Y-59131000I-249999J0D01*
G01*
G37*
%TD.AperFunction*%
%TD*%
D12*
%TO.P,J1,13*%
%TO.N,/DB7*%
X168788000Y-67365000D03*
%TO.P,J1,12*%
%TO.N,/DB6*%
X166018000Y-67365000D03*
%TO.P,J1,11*%
%TO.N,/DB5*%
X163248000Y-67365000D03*
%TO.P,J1,10*%
%TO.N,/DB3*%
X160478000Y-67365000D03*
%TO.P,J1,9*%
%TO.N,GND*%
X157708000Y-67365000D03*
%TO.P,J1,8*%
%TO.N,/DB0*%
X154938000Y-67365000D03*
%TO.P,J1,7*%
%TO.N,GND*%
X152168000Y-67365000D03*
%TO.P,J1,6*%
%TO.N,/BSY*%
X149398000Y-67365000D03*
%TO.P,J1,5*%
%TO.N,/ACK*%
X146628000Y-67365000D03*
%TO.P,J1,4*%
%TO.N,/RST*%
X143858000Y-67365000D03*
%TO.P,J1,3*%
%TO.N,/I_O*%
X141088000Y-67365000D03*
%TO.P,J1,2*%
%TO.N,/MSG*%
X138318000Y-67365000D03*
%TO.P,J1,1*%
%TO.N,/REQ*%
X135548000Y-67365000D03*
%TD*%
%TO.P,C2,2*%
%TO.N,GND*%
%TA.AperFunction,SMDPad,CuDef*%
G36*
G01*
X145348000Y-53282001D02*
X145348000Y-52381999D01*
G75*
G02*
X145597999Y-52132000I249999J0D01*
G01*
X146248001Y-52132000D01*
G75*
G02*
X146498000Y-52381999I0J-249999D01*
G01*
X146498000Y-53282001D01*
G75*
G02*
X146248001Y-53532000I-249999J0D01*
G01*
X145597999Y-53532000D01*
G75*
G02*
X145348000Y-53282001I0J249999D01*
G01*
G37*
%TD.AperFunction*%
%TO.P,C2,1*%
%TO.N,/2.85V*%
%TA.AperFunction,SMDPad,CuDef*%
G36*
G01*
X143298000Y-53282001D02*
X143298000Y-52381999D01*
G75*
G02*
X143547999Y-52132000I249999J0D01*
G01*
X144198001Y-52132000D01*
G75*
G02*
X144448000Y-52381999I0J-249999D01*
G01*
X144448000Y-53282001D01*
G75*
G02*
X144198001Y-53532000I-249999J0D01*
G01*
X143547999Y-53532000D01*
G75*
G02*
X143298000Y-53282001I0J249999D01*
G01*
G37*
%TD.AperFunction*%
%TD*%
%TO.P,C1,2*%
%TO.N,GND*%
%TA.AperFunction,SMDPad,CuDef*%
G36*
G01*
X159590000Y-53282001D02*
X159590000Y-52381999D01*
G75*
G02*
X159839999Y-52132000I249999J0D01*
G01*
X160490001Y-52132000D01*
G75*
G02*
X160740000Y-52381999I0J-249999D01*
G01*
X160740000Y-53282001D01*
G75*
G02*
X160490001Y-53532000I-249999J0D01*
G01*
X159839999Y-53532000D01*
G75*
G02*
X159590000Y-53282001I0J249999D01*
G01*
G37*
%TD.AperFunction*%
%TO.P,C1,1*%
%TO.N,+5V*%
%TA.AperFunction,SMDPad,CuDef*%
G36*
G01*
X157540000Y-53282001D02*
X157540000Y-52381999D01*
G75*
G02*
X157789999Y-52132000I249999J0D01*
G01*
X158440001Y-52132000D01*
G75*
G02*
X158690000Y-52381999I0J-249999D01*
G01*
X158690000Y-53282001D01*
G75*
G02*
X158440001Y-53532000I-249999J0D01*
G01*
X157789999Y-53532000D01*
G75*
G02*
X157540000Y-53282001I0J249999D01*
G01*
G37*
%TD.AperFunction*%
%TD*%
D13*
%TO.N,GND*%
X157988000Y-54864000D03*
X142473000Y-64749000D03*
X148013000Y-64712000D03*
X147955000Y-53086000D03*
X142875000Y-54864000D03*
X157708000Y-64415000D03*
X152168000Y-64494000D03*
X152146000Y-58928000D03*
X155194000Y-59309000D03*
X160782000Y-54864000D03*
X142444010Y-62279990D03*
X148350000Y-51900000D03*
X156500000Y-51600000D03*
X147050000Y-59500000D03*
%TO.N,+5V*%
X155575000Y-57658000D03*
%TO.N,/2.85V*%
X162190000Y-60960000D03*
X155790000Y-60960000D03*
X144825500Y-60624500D03*
%TD*%
D14*
%TO.N,GND*%
X152168000Y-64367000D02*
X152168000Y-64494000D01*
D15*
X157708000Y-62712000D02*
X157708000Y-64415000D01*
X156972000Y-61976000D02*
X157708000Y-62712000D01*
X147701000Y-52832000D02*
X147955000Y-53086000D01*
X146939000Y-52832000D02*
X147701000Y-52832000D01*
X145923000Y-52832000D02*
X146939000Y-52832000D01*
X146939000Y-52832000D02*
X148056000Y-52832000D01*
X160165000Y-52832000D02*
X160165000Y-54719000D01*
X160020000Y-54864000D02*
X157988000Y-54864000D01*
X160165000Y-54719000D02*
X160020000Y-54864000D01*
X157708000Y-64415000D02*
X157708000Y-67365000D01*
D14*
X152168000Y-64494000D02*
X152168000Y-67365000D01*
X157708000Y-62308000D02*
X157708000Y-64415000D01*
X157260010Y-61860010D02*
X157708000Y-62308000D01*
X142473000Y-62830810D02*
X143443800Y-61860010D01*
X142473000Y-64749000D02*
X142473000Y-62830810D01*
X153189990Y-60339990D02*
X153189990Y-61860010D01*
X153189990Y-61860010D02*
X157260010Y-61860010D01*
X143443800Y-61860010D02*
X153189990Y-61860010D01*
D15*
X152000000Y-59150000D02*
X153189990Y-60339990D01*
X152000000Y-58400000D02*
X152000000Y-59150000D01*
D14*
X147955000Y-55845000D02*
X147900000Y-55900000D01*
X147955000Y-53086000D02*
X147955000Y-55845000D01*
D15*
%TO.N,+5V*%
X157099000Y-52832000D02*
X158115000Y-52832000D01*
X154807000Y-53707000D02*
X154550000Y-53450000D01*
X154807000Y-56890000D02*
X154807000Y-53707000D01*
X155575000Y-57658000D02*
X154807000Y-56890000D01*
X156481000Y-53450000D02*
X157099000Y-52832000D01*
X154550000Y-53450000D02*
X156481000Y-53450000D01*
D14*
%TO.N,/DB7*%
X162996981Y-57205981D02*
X162306000Y-56515000D01*
X163781020Y-57806420D02*
X163180581Y-57205981D01*
X162306000Y-56515000D02*
X162306000Y-56506000D01*
X163781020Y-59004610D02*
X163781020Y-57806420D01*
X164543020Y-59766610D02*
X163781020Y-59004610D01*
X168788000Y-65375000D02*
X167929000Y-64516000D01*
X165862000Y-64516000D02*
X164543020Y-63197020D01*
X167929000Y-64516000D02*
X165862000Y-64516000D01*
X164543020Y-63197020D02*
X164543020Y-59766610D01*
X163180581Y-57205981D02*
X162996981Y-57205981D01*
X168788000Y-67365000D02*
X168788000Y-65375000D01*
%TO.N,/DB6*%
X160514020Y-56497000D02*
X159639000Y-56497000D01*
X161673010Y-57655990D02*
X160514020Y-56497000D01*
X163331010Y-57992820D02*
X162994180Y-57655990D01*
X166018000Y-67365000D02*
X166018000Y-65688000D01*
X163331010Y-59191010D02*
X163331010Y-57992820D01*
X162994180Y-57655990D02*
X161673010Y-57655990D01*
X164093010Y-63763010D02*
X164093010Y-59953010D01*
X166018000Y-65688000D02*
X164093010Y-63763010D01*
X164093010Y-59953010D02*
X163331010Y-59191010D01*
%TO.N,/DB5*%
X163322000Y-67291000D02*
X163248000Y-67365000D01*
X163322000Y-62874000D02*
X163322000Y-67291000D01*
%TO.N,/DB3*%
X160464500Y-67351500D02*
X160478000Y-67365000D01*
X160464500Y-62937500D02*
X160464500Y-67351500D01*
%TO.N,/DB0*%
X154940000Y-67363000D02*
X154938000Y-67365000D01*
X154940000Y-63010000D02*
X154940000Y-67363000D01*
%TO.N,/BSY*%
X149415500Y-67347500D02*
X149398000Y-67365000D01*
X149415500Y-62946500D02*
X149415500Y-67347500D01*
%TO.N,/ACK*%
X146685000Y-67308000D02*
X146628000Y-67365000D01*
X146685000Y-63010000D02*
X146685000Y-67308000D01*
%TO.N,/RST*%
X143891000Y-67332000D02*
X143858000Y-67365000D01*
X143891000Y-63001000D02*
X143891000Y-67332000D01*
%TO.N,/I_O*%
X141097000Y-67356000D02*
X141088000Y-67365000D01*
X141097000Y-62992000D02*
X141097000Y-67356000D01*
%TO.N,/MSG*%
X140071990Y-64017010D02*
X138318000Y-65771000D01*
X140071990Y-60378820D02*
X140071990Y-64017010D01*
X138318000Y-65771000D02*
X138318000Y-67365000D01*
X140970000Y-58110810D02*
X140970000Y-59480810D01*
X144653000Y-56497000D02*
X144258020Y-56891980D01*
X141424820Y-57655990D02*
X140970000Y-58110810D01*
X143126990Y-57655990D02*
X141424820Y-57655990D01*
X143891000Y-56891980D02*
X143126990Y-57655990D01*
X140970000Y-59480810D02*
X140071990Y-60378820D01*
X144258020Y-56891980D02*
X143891000Y-56891980D01*
%TO.N,/REQ*%
X141859000Y-56506000D02*
X141684400Y-56506000D01*
X140011990Y-59802410D02*
X139621980Y-60192420D01*
X141988020Y-57205980D02*
X141238419Y-57205981D01*
X142113000Y-57081000D02*
X141988020Y-57205980D01*
X142113000Y-56506000D02*
X142113000Y-57081000D01*
X141238419Y-57205981D02*
X140519990Y-57924410D01*
X135548000Y-65375000D02*
X135548000Y-67365000D01*
X136153000Y-64770000D02*
X135548000Y-65375000D01*
X138682590Y-64770000D02*
X136153000Y-64770000D01*
X140519990Y-57924410D02*
X140519990Y-59294410D01*
X139621980Y-63830610D02*
X138682590Y-64770000D01*
X139621980Y-60192420D02*
X139621980Y-63830610D01*
X140519990Y-59294410D02*
X139621980Y-60192420D01*
%TO.N,/2.85V*%
X160410000Y-60824000D02*
X160401000Y-60833000D01*
X155067000Y-60833000D02*
X154940000Y-60960000D01*
X160401000Y-60833000D02*
X155067000Y-60833000D01*
D15*
X143882000Y-60942000D02*
X143891000Y-60951000D01*
X141097000Y-60942000D02*
X143882000Y-60942000D01*
X146676000Y-60951000D02*
X146685000Y-60960000D01*
X149352000Y-60960000D02*
X149415500Y-60896500D01*
X146685000Y-60960000D02*
X149352000Y-60960000D01*
X143873000Y-52832000D02*
X144973010Y-51731990D01*
X163186000Y-60960000D02*
X163322000Y-60824000D01*
X154940000Y-60960000D02*
X155790000Y-60960000D01*
X144653000Y-60452000D02*
X144825500Y-60624500D01*
X144653000Y-58547000D02*
X144653000Y-60452000D01*
X145152000Y-60951000D02*
X146676000Y-60951000D01*
X143891000Y-60951000D02*
X145152000Y-60951000D01*
X141859000Y-60180000D02*
X141097000Y-60942000D01*
X141859000Y-58556000D02*
X141859000Y-60180000D01*
X159639000Y-60071000D02*
X160401000Y-60833000D01*
X159639000Y-58547000D02*
X159639000Y-60071000D01*
X162560000Y-58556000D02*
X162560000Y-60579000D01*
X162560000Y-60579000D02*
X162315000Y-60824000D01*
D14*
X162315000Y-60824000D02*
X160410000Y-60824000D01*
X163322000Y-60824000D02*
X162315000Y-60824000D01*
D15*
X144973010Y-51731990D02*
X146981990Y-51731990D01*
X145215500Y-54174500D02*
X143873000Y-52832000D01*
X146981990Y-51731990D02*
X149050000Y-49663980D01*
X145215500Y-54174500D02*
X145874500Y-54174500D01*
X162190000Y-60960000D02*
X163186000Y-60960000D01*
X152250000Y-55750000D02*
X152000000Y-56000000D01*
X152250000Y-53450000D02*
X152250000Y-55750000D01*
X152000000Y-56000000D02*
X153500000Y-56000000D01*
X153500000Y-56000000D02*
X154100000Y-56600000D01*
X154100000Y-60120000D02*
X154940000Y-60960000D01*
X154100000Y-56600000D02*
X154100000Y-60120000D01*
X144907000Y-58547000D02*
X145953000Y-58547000D01*
X146275000Y-58225000D02*
X146275000Y-54575000D01*
X145953000Y-58547000D02*
X146275000Y-58225000D01*
X146275000Y-54575000D02*
X145874500Y-54174500D01*
X155790000Y-60960000D02*
X162190000Y-60960000D01*
X144825500Y-60624500D02*
X145152000Y-60951000D01*
D14*
X151563980Y-47150000D02*
X149050000Y-49663980D01*
X152250000Y-47150000D02*
X151563980Y-47150000D01*
X152250000Y-47150000D02*
X152850000Y-47150000D01*
X152850000Y-47150000D02*
X154800000Y-49100000D01*
X154000000Y-49100000D02*
X152250000Y-50850000D01*
X154800000Y-49100000D02*
X154000000Y-49100000D01*
D15*
X152250000Y-50850000D02*
X152250000Y-53450000D01*
D14*
%TO.N,Net-(C3-Pad1)*%
X149950000Y-53450000D02*
X149950000Y-55950000D01*
X149950000Y-55950000D02*
X149950000Y-58400000D01*
X149500000Y-57950000D02*
X149950000Y-58400000D01*
X147900000Y-57950000D02*
X149500000Y-57950000D01*
%TD*%
D16*
%TO.N,/2.85V*%
G36*
X149711928Y-48150000D02*
G01*
X149724188Y-48274482D01*
X149760498Y-48394180D01*
X149819463Y-48504494D01*
X149898815Y-48601185D01*
X149995506Y-48680537D01*
X150105820Y-48739502D01*
X150225518Y-48775812D01*
X150350000Y-48788072D01*
X151964250Y-48785000D01*
X152123000Y-48626250D01*
X152123000Y-48077000D01*
X152377000Y-48077000D01*
X152377000Y-48626250D01*
X152535750Y-48785000D01*
X154150000Y-48788072D01*
X154274482Y-48775812D01*
X154394180Y-48739502D01*
X154504494Y-48680537D01*
X154601185Y-48601185D01*
X154680537Y-48504494D01*
X154739502Y-48394180D01*
X154775812Y-48274482D01*
X154788072Y-48150000D01*
X154787758Y-48077000D01*
X155423000Y-48077000D01*
X155423000Y-51423000D01*
X149272696Y-51423000D01*
X149267205Y-51409744D01*
X149153937Y-51240226D01*
X149127000Y-51213289D01*
X149127000Y-48077000D01*
X149712242Y-48077000D01*
X149711928Y-48150000D01*
G37*
X149711928Y-48150000D02*
X149724188Y-48274482D01*
X149760498Y-48394180D01*
X149819463Y-48504494D01*
X149898815Y-48601185D01*
X149995506Y-48680537D01*
X150105820Y-48739502D01*
X150225518Y-48775812D01*
X150350000Y-48788072D01*
X151964250Y-48785000D01*
X152123000Y-48626250D01*
X152123000Y-48077000D01*
X152377000Y-48077000D01*
X152377000Y-48626250D01*
X152535750Y-48785000D01*
X154150000Y-48788072D01*
X154274482Y-48775812D01*
X154394180Y-48739502D01*
X154504494Y-48680537D01*
X154601185Y-48601185D01*
X154680537Y-48504494D01*
X154739502Y-48394180D01*
X154775812Y-48274482D01*
X154788072Y-48150000D01*
X154787758Y-48077000D01*
X155423000Y-48077000D01*
X155423000Y-51423000D01*
X149272696Y-51423000D01*
X149267205Y-51409744D01*
X149153937Y-51240226D01*
X149127000Y-51213289D01*
X149127000Y-48077000D01*
X149712242Y-48077000D01*
X149711928Y-48150000D01*
%TO.N,GND*%
G36*
X159156816Y-61858000D02*
G01*
X159069038Y-61930038D01*
X158958595Y-62064613D01*
X158876528Y-62218149D01*
X158825992Y-62384745D01*
X158808928Y-62557999D01*
X158808928Y-63208001D01*
X158825992Y-63381255D01*
X158876528Y-63547851D01*
X158958595Y-63701387D01*
X159069038Y-63835962D01*
X159203613Y-63946405D01*
X159357149Y-64028472D01*
X159523745Y-64079008D01*
X159696999Y-64096072D01*
X159704500Y-64096072D01*
X159704500Y-64986928D01*
X159554667Y-64986928D01*
X159430185Y-64999188D01*
X159310487Y-65035498D01*
X159200173Y-65094463D01*
X159103482Y-65173815D01*
X159093000Y-65186587D01*
X159082518Y-65173815D01*
X158985827Y-65094463D01*
X158875513Y-65035498D01*
X158755815Y-64999188D01*
X158631333Y-64986928D01*
X157993750Y-64990000D01*
X157835000Y-65148750D01*
X157835000Y-67238000D01*
X157855000Y-67238000D01*
X157855000Y-67492000D01*
X157835000Y-67492000D01*
X157835000Y-67512000D01*
X157581000Y-67512000D01*
X157581000Y-67492000D01*
X157561000Y-67492000D01*
X157561000Y-67238000D01*
X157581000Y-67238000D01*
X157581000Y-65148750D01*
X157422250Y-64990000D01*
X156784667Y-64986928D01*
X156660185Y-64999188D01*
X156540487Y-65035498D01*
X156430173Y-65094463D01*
X156333482Y-65173815D01*
X156323000Y-65186587D01*
X156312518Y-65173815D01*
X156215827Y-65094463D01*
X156105513Y-65035498D01*
X155985815Y-64999188D01*
X155861333Y-64986928D01*
X155700000Y-64986928D01*
X155700000Y-64164527D01*
X155729851Y-64155472D01*
X155883387Y-64073405D01*
X156017962Y-63962962D01*
X156128405Y-63828387D01*
X156210472Y-63674851D01*
X156261008Y-63508255D01*
X156278072Y-63335001D01*
X156278072Y-62684999D01*
X156261008Y-62511745D01*
X156210472Y-62345149D01*
X156128405Y-62191613D01*
X156017962Y-62057038D01*
X155932530Y-61986926D01*
X156091898Y-61955226D01*
X156280256Y-61877205D01*
X156403285Y-61795000D01*
X159080051Y-61795000D01*
X159156816Y-61858000D01*
G37*
X159156816Y-61858000D02*
X159069038Y-61930038D01*
X158958595Y-62064613D01*
X158876528Y-62218149D01*
X158825992Y-62384745D01*
X158808928Y-62557999D01*
X158808928Y-63208001D01*
X158825992Y-63381255D01*
X158876528Y-63547851D01*
X158958595Y-63701387D01*
X159069038Y-63835962D01*
X159203613Y-63946405D01*
X159357149Y-64028472D01*
X159523745Y-64079008D01*
X159696999Y-64096072D01*
X159704500Y-64096072D01*
X159704500Y-64986928D01*
X159554667Y-64986928D01*
X159430185Y-64999188D01*
X159310487Y-65035498D01*
X159200173Y-65094463D01*
X159103482Y-65173815D01*
X159093000Y-65186587D01*
X159082518Y-65173815D01*
X158985827Y-65094463D01*
X158875513Y-65035498D01*
X158755815Y-64999188D01*
X158631333Y-64986928D01*
X157993750Y-64990000D01*
X157835000Y-65148750D01*
X157835000Y-67238000D01*
X157855000Y-67238000D01*
X157855000Y-67492000D01*
X157835000Y-67492000D01*
X157835000Y-67512000D01*
X157581000Y-67512000D01*
X157581000Y-67492000D01*
X157561000Y-67492000D01*
X157561000Y-67238000D01*
X157581000Y-67238000D01*
X157581000Y-65148750D01*
X157422250Y-64990000D01*
X156784667Y-64986928D01*
X156660185Y-64999188D01*
X156540487Y-65035498D01*
X156430173Y-65094463D01*
X156333482Y-65173815D01*
X156323000Y-65186587D01*
X156312518Y-65173815D01*
X156215827Y-65094463D01*
X156105513Y-65035498D01*
X155985815Y-64999188D01*
X155861333Y-64986928D01*
X155700000Y-64986928D01*
X155700000Y-64164527D01*
X155729851Y-64155472D01*
X155883387Y-64073405D01*
X156017962Y-63962962D01*
X156128405Y-63828387D01*
X156210472Y-63674851D01*
X156261008Y-63508255D01*
X156278072Y-63335001D01*
X156278072Y-62684999D01*
X156261008Y-62511745D01*
X156210472Y-62345149D01*
X156128405Y-62191613D01*
X156017962Y-62057038D01*
X155932530Y-61986926D01*
X156091898Y-61955226D01*
X156280256Y-61877205D01*
X156403285Y-61795000D01*
X159080051Y-61795000D01*
X159156816Y-61858000D01*
G36*
X153265000Y-56945868D02*
G01*
X153265001Y-60078972D01*
X153260960Y-60120000D01*
X153277082Y-60283688D01*
X153324828Y-60441086D01*
X153402364Y-60586145D01*
X153402365Y-60586146D01*
X153506710Y-60713291D01*
X153538574Y-60739441D01*
X153601928Y-60802795D01*
X153601928Y-61285001D01*
X153618992Y-61458255D01*
X153669528Y-61624851D01*
X153751595Y-61778387D01*
X153862038Y-61912962D01*
X153949816Y-61985000D01*
X153862038Y-62057038D01*
X153751595Y-62191613D01*
X153669528Y-62345149D01*
X153618992Y-62511745D01*
X153601928Y-62684999D01*
X153601928Y-63335001D01*
X153618992Y-63508255D01*
X153669528Y-63674851D01*
X153751595Y-63828387D01*
X153862038Y-63962962D01*
X153996613Y-64073405D01*
X154150149Y-64155472D01*
X154180000Y-64164527D01*
X154180000Y-64986928D01*
X154014667Y-64986928D01*
X153890185Y-64999188D01*
X153770487Y-65035498D01*
X153660173Y-65094463D01*
X153563482Y-65173815D01*
X153553000Y-65186587D01*
X153542518Y-65173815D01*
X153445827Y-65094463D01*
X153335513Y-65035498D01*
X153215815Y-64999188D01*
X153091333Y-64986928D01*
X152453750Y-64990000D01*
X152295000Y-65148750D01*
X152295000Y-67238000D01*
X152315000Y-67238000D01*
X152315000Y-67492000D01*
X152295000Y-67492000D01*
X152295000Y-67512000D01*
X152041000Y-67512000D01*
X152041000Y-67492000D01*
X152021000Y-67492000D01*
X152021000Y-67238000D01*
X152041000Y-67238000D01*
X152041000Y-65148750D01*
X151882250Y-64990000D01*
X151244667Y-64986928D01*
X151120185Y-64999188D01*
X151000487Y-65035498D01*
X150890173Y-65094463D01*
X150793482Y-65173815D01*
X150783000Y-65186587D01*
X150772518Y-65173815D01*
X150675827Y-65094463D01*
X150565513Y-65035498D01*
X150445815Y-64999188D01*
X150321333Y-64986928D01*
X150175500Y-64986928D01*
X150175500Y-64101027D01*
X150205351Y-64091972D01*
X150358887Y-64009905D01*
X150493462Y-63899462D01*
X150603905Y-63764887D01*
X150685972Y-63611351D01*
X150736508Y-63444755D01*
X150753572Y-63271501D01*
X150753572Y-62621499D01*
X150736508Y-62448245D01*
X150685972Y-62281649D01*
X150603905Y-62128113D01*
X150493462Y-61993538D01*
X150405684Y-61921500D01*
X150493462Y-61849462D01*
X150603905Y-61714887D01*
X150685972Y-61561351D01*
X150736508Y-61394755D01*
X150753572Y-61221501D01*
X150753572Y-60571499D01*
X150736508Y-60398245D01*
X150685972Y-60231649D01*
X150603905Y-60078113D01*
X150493462Y-59943538D01*
X150358887Y-59833095D01*
X150205351Y-59751028D01*
X150038755Y-59700492D01*
X149865501Y-59683428D01*
X148965499Y-59683428D01*
X148792245Y-59700492D01*
X148625649Y-59751028D01*
X148472113Y-59833095D01*
X148337538Y-59943538D01*
X148227095Y-60078113D01*
X148202033Y-60125000D01*
X147859771Y-60125000D01*
X147762962Y-60007038D01*
X147628387Y-59896595D01*
X147474851Y-59814528D01*
X147308255Y-59763992D01*
X147135001Y-59746928D01*
X146234999Y-59746928D01*
X146061745Y-59763992D01*
X145895149Y-59814528D01*
X145741613Y-59896595D01*
X145639764Y-59980181D01*
X145629437Y-59964726D01*
X145488000Y-59823289D01*
X145488000Y-59747170D01*
X145530255Y-59743008D01*
X145696851Y-59692472D01*
X145850387Y-59610405D01*
X145984962Y-59499962D01*
X146089488Y-59372597D01*
X146116689Y-59369918D01*
X146274087Y-59322172D01*
X146419146Y-59244636D01*
X146546291Y-59140291D01*
X146572445Y-59108422D01*
X146802145Y-58878723D01*
X146822038Y-58902962D01*
X146956613Y-59013405D01*
X147110149Y-59095472D01*
X147276745Y-59146008D01*
X147449999Y-59163072D01*
X148350001Y-59163072D01*
X148523255Y-59146008D01*
X148689851Y-59095472D01*
X148789996Y-59041943D01*
X148804528Y-59089851D01*
X148886595Y-59243387D01*
X148997038Y-59377962D01*
X149131613Y-59488405D01*
X149285149Y-59570472D01*
X149451745Y-59621008D01*
X149624999Y-59638072D01*
X150275001Y-59638072D01*
X150448255Y-59621008D01*
X150614851Y-59570472D01*
X150768387Y-59488405D01*
X150902962Y-59377962D01*
X150908342Y-59371406D01*
X150973815Y-59451185D01*
X151070506Y-59530537D01*
X151180820Y-59589502D01*
X151300518Y-59625812D01*
X151425000Y-59638072D01*
X151714250Y-59635000D01*
X151873000Y-59476250D01*
X151873000Y-58427000D01*
X152127000Y-58427000D01*
X152127000Y-59476250D01*
X152285750Y-59635000D01*
X152575000Y-59638072D01*
X152699482Y-59625812D01*
X152819180Y-59589502D01*
X152929494Y-59530537D01*
X153026185Y-59451185D01*
X153105537Y-59354494D01*
X153164502Y-59244180D01*
X153200812Y-59124482D01*
X153213072Y-59000000D01*
X153210000Y-58585750D01*
X153051250Y-58427000D01*
X152127000Y-58427000D01*
X151873000Y-58427000D01*
X151853000Y-58427000D01*
X151853000Y-58173000D01*
X151873000Y-58173000D01*
X151873000Y-58153000D01*
X152127000Y-58153000D01*
X152127000Y-58173000D01*
X153051250Y-58173000D01*
X153210000Y-58014250D01*
X153213072Y-57600000D01*
X153200812Y-57475518D01*
X153164502Y-57355820D01*
X153105537Y-57245506D01*
X153026185Y-57148815D01*
X152946406Y-57083342D01*
X152952962Y-57077962D01*
X153063405Y-56943387D01*
X153121339Y-56835000D01*
X153154133Y-56835000D01*
X153265000Y-56945868D01*
G37*
X153265000Y-56945868D02*
X153265001Y-60078972D01*
X153260960Y-60120000D01*
X153277082Y-60283688D01*
X153324828Y-60441086D01*
X153402364Y-60586145D01*
X153402365Y-60586146D01*
X153506710Y-60713291D01*
X153538574Y-60739441D01*
X153601928Y-60802795D01*
X153601928Y-61285001D01*
X153618992Y-61458255D01*
X153669528Y-61624851D01*
X153751595Y-61778387D01*
X153862038Y-61912962D01*
X153949816Y-61985000D01*
X153862038Y-62057038D01*
X153751595Y-62191613D01*
X153669528Y-62345149D01*
X153618992Y-62511745D01*
X153601928Y-62684999D01*
X153601928Y-63335001D01*
X153618992Y-63508255D01*
X153669528Y-63674851D01*
X153751595Y-63828387D01*
X153862038Y-63962962D01*
X153996613Y-64073405D01*
X154150149Y-64155472D01*
X154180000Y-64164527D01*
X154180000Y-64986928D01*
X154014667Y-64986928D01*
X153890185Y-64999188D01*
X153770487Y-65035498D01*
X153660173Y-65094463D01*
X153563482Y-65173815D01*
X153553000Y-65186587D01*
X153542518Y-65173815D01*
X153445827Y-65094463D01*
X153335513Y-65035498D01*
X153215815Y-64999188D01*
X153091333Y-64986928D01*
X152453750Y-64990000D01*
X152295000Y-65148750D01*
X152295000Y-67238000D01*
X152315000Y-67238000D01*
X152315000Y-67492000D01*
X152295000Y-67492000D01*
X152295000Y-67512000D01*
X152041000Y-67512000D01*
X152041000Y-67492000D01*
X152021000Y-67492000D01*
X152021000Y-67238000D01*
X152041000Y-67238000D01*
X152041000Y-65148750D01*
X151882250Y-64990000D01*
X151244667Y-64986928D01*
X151120185Y-64999188D01*
X151000487Y-65035498D01*
X150890173Y-65094463D01*
X150793482Y-65173815D01*
X150783000Y-65186587D01*
X150772518Y-65173815D01*
X150675827Y-65094463D01*
X150565513Y-65035498D01*
X150445815Y-64999188D01*
X150321333Y-64986928D01*
X150175500Y-64986928D01*
X150175500Y-64101027D01*
X150205351Y-64091972D01*
X150358887Y-64009905D01*
X150493462Y-63899462D01*
X150603905Y-63764887D01*
X150685972Y-63611351D01*
X150736508Y-63444755D01*
X150753572Y-63271501D01*
X150753572Y-62621499D01*
X150736508Y-62448245D01*
X150685972Y-62281649D01*
X150603905Y-62128113D01*
X150493462Y-61993538D01*
X150405684Y-61921500D01*
X150493462Y-61849462D01*
X150603905Y-61714887D01*
X150685972Y-61561351D01*
X150736508Y-61394755D01*
X150753572Y-61221501D01*
X150753572Y-60571499D01*
X150736508Y-60398245D01*
X150685972Y-60231649D01*
X150603905Y-60078113D01*
X150493462Y-59943538D01*
X150358887Y-59833095D01*
X150205351Y-59751028D01*
X150038755Y-59700492D01*
X149865501Y-59683428D01*
X148965499Y-59683428D01*
X148792245Y-59700492D01*
X148625649Y-59751028D01*
X148472113Y-59833095D01*
X148337538Y-59943538D01*
X148227095Y-60078113D01*
X148202033Y-60125000D01*
X147859771Y-60125000D01*
X147762962Y-60007038D01*
X147628387Y-59896595D01*
X147474851Y-59814528D01*
X147308255Y-59763992D01*
X147135001Y-59746928D01*
X146234999Y-59746928D01*
X146061745Y-59763992D01*
X145895149Y-59814528D01*
X145741613Y-59896595D01*
X145639764Y-59980181D01*
X145629437Y-59964726D01*
X145488000Y-59823289D01*
X145488000Y-59747170D01*
X145530255Y-59743008D01*
X145696851Y-59692472D01*
X145850387Y-59610405D01*
X145984962Y-59499962D01*
X146089488Y-59372597D01*
X146116689Y-59369918D01*
X146274087Y-59322172D01*
X146419146Y-59244636D01*
X146546291Y-59140291D01*
X146572445Y-59108422D01*
X146802145Y-58878723D01*
X146822038Y-58902962D01*
X146956613Y-59013405D01*
X147110149Y-59095472D01*
X147276745Y-59146008D01*
X147449999Y-59163072D01*
X148350001Y-59163072D01*
X148523255Y-59146008D01*
X148689851Y-59095472D01*
X148789996Y-59041943D01*
X148804528Y-59089851D01*
X148886595Y-59243387D01*
X148997038Y-59377962D01*
X149131613Y-59488405D01*
X149285149Y-59570472D01*
X149451745Y-59621008D01*
X149624999Y-59638072D01*
X150275001Y-59638072D01*
X150448255Y-59621008D01*
X150614851Y-59570472D01*
X150768387Y-59488405D01*
X150902962Y-59377962D01*
X150908342Y-59371406D01*
X150973815Y-59451185D01*
X151070506Y-59530537D01*
X151180820Y-59589502D01*
X151300518Y-59625812D01*
X151425000Y-59638072D01*
X151714250Y-59635000D01*
X151873000Y-59476250D01*
X151873000Y-58427000D01*
X152127000Y-58427000D01*
X152127000Y-59476250D01*
X152285750Y-59635000D01*
X152575000Y-59638072D01*
X152699482Y-59625812D01*
X152819180Y-59589502D01*
X152929494Y-59530537D01*
X153026185Y-59451185D01*
X153105537Y-59354494D01*
X153164502Y-59244180D01*
X153200812Y-59124482D01*
X153213072Y-59000000D01*
X153210000Y-58585750D01*
X153051250Y-58427000D01*
X152127000Y-58427000D01*
X151873000Y-58427000D01*
X151853000Y-58427000D01*
X151853000Y-58173000D01*
X151873000Y-58173000D01*
X151873000Y-58153000D01*
X152127000Y-58153000D01*
X152127000Y-58173000D01*
X153051250Y-58173000D01*
X153210000Y-58014250D01*
X153213072Y-57600000D01*
X153200812Y-57475518D01*
X153164502Y-57355820D01*
X153105537Y-57245506D01*
X153026185Y-57148815D01*
X152946406Y-57083342D01*
X152952962Y-57077962D01*
X153063405Y-56943387D01*
X153121339Y-56835000D01*
X153154133Y-56835000D01*
X153265000Y-56945868D01*
G36*
X148337538Y-61849462D02*
G01*
X148425316Y-61921500D01*
X148337538Y-61993538D01*
X148227095Y-62128113D01*
X148145028Y-62281649D01*
X148094492Y-62448245D01*
X148077428Y-62621499D01*
X148077428Y-63271501D01*
X148094492Y-63444755D01*
X148145028Y-63611351D01*
X148227095Y-63764887D01*
X148337538Y-63899462D01*
X148472113Y-64009905D01*
X148625649Y-64091972D01*
X148655500Y-64101027D01*
X148655500Y-64986928D01*
X148474667Y-64986928D01*
X148350185Y-64999188D01*
X148230487Y-65035498D01*
X148120173Y-65094463D01*
X148023482Y-65173815D01*
X148013000Y-65186587D01*
X148002518Y-65173815D01*
X147905827Y-65094463D01*
X147795513Y-65035498D01*
X147675815Y-64999188D01*
X147551333Y-64986928D01*
X147445000Y-64986928D01*
X147445000Y-64164527D01*
X147474851Y-64155472D01*
X147628387Y-64073405D01*
X147762962Y-63962962D01*
X147873405Y-63828387D01*
X147955472Y-63674851D01*
X148006008Y-63508255D01*
X148023072Y-63335001D01*
X148023072Y-62684999D01*
X148006008Y-62511745D01*
X147955472Y-62345149D01*
X147873405Y-62191613D01*
X147762962Y-62057038D01*
X147675184Y-61985000D01*
X147762962Y-61912962D01*
X147859771Y-61795000D01*
X148292842Y-61795000D01*
X148337538Y-61849462D01*
G37*
X148337538Y-61849462D02*
X148425316Y-61921500D01*
X148337538Y-61993538D01*
X148227095Y-62128113D01*
X148145028Y-62281649D01*
X148094492Y-62448245D01*
X148077428Y-62621499D01*
X148077428Y-63271501D01*
X148094492Y-63444755D01*
X148145028Y-63611351D01*
X148227095Y-63764887D01*
X148337538Y-63899462D01*
X148472113Y-64009905D01*
X148625649Y-64091972D01*
X148655500Y-64101027D01*
X148655500Y-64986928D01*
X148474667Y-64986928D01*
X148350185Y-64999188D01*
X148230487Y-65035498D01*
X148120173Y-65094463D01*
X148023482Y-65173815D01*
X148013000Y-65186587D01*
X148002518Y-65173815D01*
X147905827Y-65094463D01*
X147795513Y-65035498D01*
X147675815Y-64999188D01*
X147551333Y-64986928D01*
X147445000Y-64986928D01*
X147445000Y-64164527D01*
X147474851Y-64155472D01*
X147628387Y-64073405D01*
X147762962Y-63962962D01*
X147873405Y-63828387D01*
X147955472Y-63674851D01*
X148006008Y-63508255D01*
X148023072Y-63335001D01*
X148023072Y-62684999D01*
X148006008Y-62511745D01*
X147955472Y-62345149D01*
X147873405Y-62191613D01*
X147762962Y-62057038D01*
X147675184Y-61985000D01*
X147762962Y-61912962D01*
X147859771Y-61795000D01*
X148292842Y-61795000D01*
X148337538Y-61849462D01*
G36*
X142813038Y-61903962D02*
G01*
X142900816Y-61976000D01*
X142813038Y-62048038D01*
X142702595Y-62182613D01*
X142620528Y-62336149D01*
X142569992Y-62502745D01*
X142552928Y-62675999D01*
X142552928Y-63326001D01*
X142569992Y-63499255D01*
X142620528Y-63665851D01*
X142702595Y-63819387D01*
X142813038Y-63953962D01*
X142947613Y-64064405D01*
X143101149Y-64146472D01*
X143131000Y-64155527D01*
X143131000Y-64986928D01*
X142934667Y-64986928D01*
X142810185Y-64999188D01*
X142690487Y-65035498D01*
X142580173Y-65094463D01*
X142483482Y-65173815D01*
X142473000Y-65186587D01*
X142462518Y-65173815D01*
X142365827Y-65094463D01*
X142255513Y-65035498D01*
X142135815Y-64999188D01*
X142011333Y-64986928D01*
X141857000Y-64986928D01*
X141857000Y-64146527D01*
X141886851Y-64137472D01*
X142040387Y-64055405D01*
X142174962Y-63944962D01*
X142285405Y-63810387D01*
X142367472Y-63656851D01*
X142418008Y-63490255D01*
X142435072Y-63317001D01*
X142435072Y-62666999D01*
X142418008Y-62493745D01*
X142367472Y-62327149D01*
X142285405Y-62173613D01*
X142174962Y-62039038D01*
X142087184Y-61967000D01*
X142174962Y-61894962D01*
X142271771Y-61777000D01*
X142708843Y-61777000D01*
X142813038Y-61903962D01*
G37*
X142813038Y-61903962D02*
X142900816Y-61976000D01*
X142813038Y-62048038D01*
X142702595Y-62182613D01*
X142620528Y-62336149D01*
X142569992Y-62502745D01*
X142552928Y-62675999D01*
X142552928Y-63326001D01*
X142569992Y-63499255D01*
X142620528Y-63665851D01*
X142702595Y-63819387D01*
X142813038Y-63953962D01*
X142947613Y-64064405D01*
X143101149Y-64146472D01*
X143131000Y-64155527D01*
X143131000Y-64986928D01*
X142934667Y-64986928D01*
X142810185Y-64999188D01*
X142690487Y-65035498D01*
X142580173Y-65094463D01*
X142483482Y-65173815D01*
X142473000Y-65186587D01*
X142462518Y-65173815D01*
X142365827Y-65094463D01*
X142255513Y-65035498D01*
X142135815Y-64999188D01*
X142011333Y-64986928D01*
X141857000Y-64986928D01*
X141857000Y-64146527D01*
X141886851Y-64137472D01*
X142040387Y-64055405D01*
X142174962Y-63944962D01*
X142285405Y-63810387D01*
X142367472Y-63656851D01*
X142418008Y-63490255D01*
X142435072Y-63317001D01*
X142435072Y-62666999D01*
X142418008Y-62493745D01*
X142367472Y-62327149D01*
X142285405Y-62173613D01*
X142174962Y-62039038D01*
X142087184Y-61967000D01*
X142174962Y-61894962D01*
X142271771Y-61777000D01*
X142708843Y-61777000D01*
X142813038Y-61903962D01*
G36*
X157187918Y-51342213D02*
G01*
X157224593Y-51372312D01*
X157272096Y-51397702D01*
X157318532Y-51424949D01*
X157331490Y-51429450D01*
X157343594Y-51435919D01*
X157395137Y-51451554D01*
X157445996Y-51469218D01*
X157459584Y-51471104D01*
X157472717Y-51475088D01*
X157526318Y-51480367D01*
X157579648Y-51487770D01*
X157626999Y-51485000D01*
X160752264Y-51485000D01*
X160763507Y-51496243D01*
X160740000Y-51493928D01*
X160450750Y-51497000D01*
X160292000Y-51655750D01*
X160292000Y-52705000D01*
X161216250Y-52705000D01*
X161375000Y-52546250D01*
X161378072Y-52132000D01*
X161375757Y-52108493D01*
X161875000Y-52607736D01*
X161875001Y-53847659D01*
X161874901Y-53914442D01*
X161881549Y-53948124D01*
X161884913Y-53982283D01*
X161894580Y-54014150D01*
X161901028Y-54046822D01*
X161914117Y-54078556D01*
X161924082Y-54111406D01*
X161939780Y-54140775D01*
X161952478Y-54171561D01*
X161971507Y-54200133D01*
X161987689Y-54230407D01*
X162029752Y-54281660D01*
X162866017Y-55303764D01*
X162756001Y-55292928D01*
X161855999Y-55292928D01*
X161682745Y-55309992D01*
X161516149Y-55360528D01*
X161362613Y-55442595D01*
X161228038Y-55553038D01*
X161117595Y-55687613D01*
X161035528Y-55841149D01*
X161011076Y-55921755D01*
X160938296Y-55862026D01*
X160806267Y-55791454D01*
X160663006Y-55747997D01*
X160607573Y-55742537D01*
X160573405Y-55678613D01*
X160462962Y-55544038D01*
X160328387Y-55433595D01*
X160174851Y-55351528D01*
X160008255Y-55300992D01*
X159835001Y-55283928D01*
X158934999Y-55283928D01*
X158761745Y-55300992D01*
X158595149Y-55351528D01*
X158441613Y-55433595D01*
X158307038Y-55544038D01*
X158196595Y-55678613D01*
X158114528Y-55832149D01*
X158063992Y-55998745D01*
X158046928Y-56171999D01*
X158046928Y-56822001D01*
X158063992Y-56995255D01*
X158114528Y-57161851D01*
X158196595Y-57315387D01*
X158307038Y-57449962D01*
X158394816Y-57522000D01*
X158307038Y-57594038D01*
X158196595Y-57728613D01*
X158114528Y-57882149D01*
X158063992Y-58048745D01*
X158046928Y-58221999D01*
X158046928Y-58872001D01*
X158063992Y-59045255D01*
X158114528Y-59211851D01*
X158196595Y-59365387D01*
X158307038Y-59499962D01*
X158441613Y-59610405D01*
X158595149Y-59692472D01*
X158761745Y-59743008D01*
X158804001Y-59747170D01*
X158804001Y-60029972D01*
X158799960Y-60071000D01*
X158800157Y-60073000D01*
X156325461Y-60073000D01*
X156280256Y-60042795D01*
X156091898Y-59964774D01*
X155926335Y-59931842D01*
X155883387Y-59896595D01*
X155729851Y-59814528D01*
X155563255Y-59763992D01*
X155390001Y-59746928D01*
X154935000Y-59746928D01*
X154935000Y-58475150D01*
X155084744Y-58575205D01*
X155273102Y-58653226D01*
X155473061Y-58693000D01*
X155676939Y-58693000D01*
X155876898Y-58653226D01*
X156065256Y-58575205D01*
X156234774Y-58461937D01*
X156378937Y-58317774D01*
X156492205Y-58148256D01*
X156570226Y-57959898D01*
X156610000Y-57759939D01*
X156610000Y-57556061D01*
X156570226Y-57356102D01*
X156492205Y-57167744D01*
X156378937Y-56998226D01*
X156234774Y-56854063D01*
X156065256Y-56740795D01*
X155876898Y-56662774D01*
X155731775Y-56633907D01*
X155642000Y-56544133D01*
X155642000Y-54987215D01*
X155654494Y-54980537D01*
X155751185Y-54901185D01*
X155830537Y-54804494D01*
X155889502Y-54694180D01*
X155925812Y-54574482D01*
X155938072Y-54450000D01*
X155938072Y-54285000D01*
X156439982Y-54285000D01*
X156481000Y-54289040D01*
X156522018Y-54285000D01*
X156522019Y-54285000D01*
X156644689Y-54272918D01*
X156802087Y-54225172D01*
X156947146Y-54147636D01*
X157074291Y-54043291D01*
X157100446Y-54011422D01*
X157183935Y-53927932D01*
X157296613Y-54020405D01*
X157450149Y-54102472D01*
X157616745Y-54153008D01*
X157789999Y-54170072D01*
X158440001Y-54170072D01*
X158613255Y-54153008D01*
X158779851Y-54102472D01*
X158933387Y-54020405D01*
X159067962Y-53909962D01*
X159073342Y-53903406D01*
X159138815Y-53983185D01*
X159235506Y-54062537D01*
X159345820Y-54121502D01*
X159465518Y-54157812D01*
X159590000Y-54170072D01*
X159879250Y-54167000D01*
X160038000Y-54008250D01*
X160038000Y-52959000D01*
X160292000Y-52959000D01*
X160292000Y-54008250D01*
X160450750Y-54167000D01*
X160740000Y-54170072D01*
X160864482Y-54157812D01*
X160984180Y-54121502D01*
X161094494Y-54062537D01*
X161191185Y-53983185D01*
X161270537Y-53886494D01*
X161329502Y-53776180D01*
X161365812Y-53656482D01*
X161378072Y-53532000D01*
X161375000Y-53117750D01*
X161216250Y-52959000D01*
X160292000Y-52959000D01*
X160038000Y-52959000D01*
X160018000Y-52959000D01*
X160018000Y-52705000D01*
X160038000Y-52705000D01*
X160038000Y-51655750D01*
X159879250Y-51497000D01*
X159590000Y-51493928D01*
X159465518Y-51506188D01*
X159345820Y-51542498D01*
X159235506Y-51601463D01*
X159138815Y-51680815D01*
X159073342Y-51760594D01*
X159067962Y-51754038D01*
X158933387Y-51643595D01*
X158779851Y-51561528D01*
X158613255Y-51510992D01*
X158440001Y-51493928D01*
X157789999Y-51493928D01*
X157616745Y-51510992D01*
X157450149Y-51561528D01*
X157296613Y-51643595D01*
X157162038Y-51754038D01*
X157051595Y-51888613D01*
X156990086Y-52003687D01*
X156935311Y-52009082D01*
X156777913Y-52056828D01*
X156632854Y-52134364D01*
X156505709Y-52238709D01*
X156479561Y-52270571D01*
X156135133Y-52615000D01*
X155938072Y-52615000D01*
X155938072Y-52527000D01*
X156100000Y-52527000D01*
X156124776Y-52524560D01*
X156148601Y-52517333D01*
X156170557Y-52505597D01*
X156189803Y-52489803D01*
X156205597Y-52470557D01*
X156217333Y-52448601D01*
X156224560Y-52424776D01*
X156227000Y-52400000D01*
X156227000Y-50643364D01*
X157187918Y-51342213D01*
G37*
X157187918Y-51342213D02*
X157224593Y-51372312D01*
X157272096Y-51397702D01*
X157318532Y-51424949D01*
X157331490Y-51429450D01*
X157343594Y-51435919D01*
X157395137Y-51451554D01*
X157445996Y-51469218D01*
X157459584Y-51471104D01*
X157472717Y-51475088D01*
X157526318Y-51480367D01*
X157579648Y-51487770D01*
X157626999Y-51485000D01*
X160752264Y-51485000D01*
X160763507Y-51496243D01*
X160740000Y-51493928D01*
X160450750Y-51497000D01*
X160292000Y-51655750D01*
X160292000Y-52705000D01*
X161216250Y-52705000D01*
X161375000Y-52546250D01*
X161378072Y-52132000D01*
X161375757Y-52108493D01*
X161875000Y-52607736D01*
X161875001Y-53847659D01*
X161874901Y-53914442D01*
X161881549Y-53948124D01*
X161884913Y-53982283D01*
X161894580Y-54014150D01*
X161901028Y-54046822D01*
X161914117Y-54078556D01*
X161924082Y-54111406D01*
X161939780Y-54140775D01*
X161952478Y-54171561D01*
X161971507Y-54200133D01*
X161987689Y-54230407D01*
X162029752Y-54281660D01*
X162866017Y-55303764D01*
X162756001Y-55292928D01*
X161855999Y-55292928D01*
X161682745Y-55309992D01*
X161516149Y-55360528D01*
X161362613Y-55442595D01*
X161228038Y-55553038D01*
X161117595Y-55687613D01*
X161035528Y-55841149D01*
X161011076Y-55921755D01*
X160938296Y-55862026D01*
X160806267Y-55791454D01*
X160663006Y-55747997D01*
X160607573Y-55742537D01*
X160573405Y-55678613D01*
X160462962Y-55544038D01*
X160328387Y-55433595D01*
X160174851Y-55351528D01*
X160008255Y-55300992D01*
X159835001Y-55283928D01*
X158934999Y-55283928D01*
X158761745Y-55300992D01*
X158595149Y-55351528D01*
X158441613Y-55433595D01*
X158307038Y-55544038D01*
X158196595Y-55678613D01*
X158114528Y-55832149D01*
X158063992Y-55998745D01*
X158046928Y-56171999D01*
X158046928Y-56822001D01*
X158063992Y-56995255D01*
X158114528Y-57161851D01*
X158196595Y-57315387D01*
X158307038Y-57449962D01*
X158394816Y-57522000D01*
X158307038Y-57594038D01*
X158196595Y-57728613D01*
X158114528Y-57882149D01*
X158063992Y-58048745D01*
X158046928Y-58221999D01*
X158046928Y-58872001D01*
X158063992Y-59045255D01*
X158114528Y-59211851D01*
X158196595Y-59365387D01*
X158307038Y-59499962D01*
X158441613Y-59610405D01*
X158595149Y-59692472D01*
X158761745Y-59743008D01*
X158804001Y-59747170D01*
X158804001Y-60029972D01*
X158799960Y-60071000D01*
X158800157Y-60073000D01*
X156325461Y-60073000D01*
X156280256Y-60042795D01*
X156091898Y-59964774D01*
X155926335Y-59931842D01*
X155883387Y-59896595D01*
X155729851Y-59814528D01*
X155563255Y-59763992D01*
X155390001Y-59746928D01*
X154935000Y-59746928D01*
X154935000Y-58475150D01*
X155084744Y-58575205D01*
X155273102Y-58653226D01*
X155473061Y-58693000D01*
X155676939Y-58693000D01*
X155876898Y-58653226D01*
X156065256Y-58575205D01*
X156234774Y-58461937D01*
X156378937Y-58317774D01*
X156492205Y-58148256D01*
X156570226Y-57959898D01*
X156610000Y-57759939D01*
X156610000Y-57556061D01*
X156570226Y-57356102D01*
X156492205Y-57167744D01*
X156378937Y-56998226D01*
X156234774Y-56854063D01*
X156065256Y-56740795D01*
X155876898Y-56662774D01*
X155731775Y-56633907D01*
X155642000Y-56544133D01*
X155642000Y-54987215D01*
X155654494Y-54980537D01*
X155751185Y-54901185D01*
X155830537Y-54804494D01*
X155889502Y-54694180D01*
X155925812Y-54574482D01*
X155938072Y-54450000D01*
X155938072Y-54285000D01*
X156439982Y-54285000D01*
X156481000Y-54289040D01*
X156522018Y-54285000D01*
X156522019Y-54285000D01*
X156644689Y-54272918D01*
X156802087Y-54225172D01*
X156947146Y-54147636D01*
X157074291Y-54043291D01*
X157100446Y-54011422D01*
X157183935Y-53927932D01*
X157296613Y-54020405D01*
X157450149Y-54102472D01*
X157616745Y-54153008D01*
X157789999Y-54170072D01*
X158440001Y-54170072D01*
X158613255Y-54153008D01*
X158779851Y-54102472D01*
X158933387Y-54020405D01*
X159067962Y-53909962D01*
X159073342Y-53903406D01*
X159138815Y-53983185D01*
X159235506Y-54062537D01*
X159345820Y-54121502D01*
X159465518Y-54157812D01*
X159590000Y-54170072D01*
X159879250Y-54167000D01*
X160038000Y-54008250D01*
X160038000Y-52959000D01*
X160292000Y-52959000D01*
X160292000Y-54008250D01*
X160450750Y-54167000D01*
X160740000Y-54170072D01*
X160864482Y-54157812D01*
X160984180Y-54121502D01*
X161094494Y-54062537D01*
X161191185Y-53983185D01*
X161270537Y-53886494D01*
X161329502Y-53776180D01*
X161365812Y-53656482D01*
X161378072Y-53532000D01*
X161375000Y-53117750D01*
X161216250Y-52959000D01*
X160292000Y-52959000D01*
X160038000Y-52959000D01*
X160018000Y-52959000D01*
X160018000Y-52705000D01*
X160038000Y-52705000D01*
X160038000Y-51655750D01*
X159879250Y-51497000D01*
X159590000Y-51493928D01*
X159465518Y-51506188D01*
X159345820Y-51542498D01*
X159235506Y-51601463D01*
X159138815Y-51680815D01*
X159073342Y-51760594D01*
X159067962Y-51754038D01*
X158933387Y-51643595D01*
X158779851Y-51561528D01*
X158613255Y-51510992D01*
X158440001Y-51493928D01*
X157789999Y-51493928D01*
X157616745Y-51510992D01*
X157450149Y-51561528D01*
X157296613Y-51643595D01*
X157162038Y-51754038D01*
X157051595Y-51888613D01*
X156990086Y-52003687D01*
X156935311Y-52009082D01*
X156777913Y-52056828D01*
X156632854Y-52134364D01*
X156505709Y-52238709D01*
X156479561Y-52270571D01*
X156135133Y-52615000D01*
X155938072Y-52615000D01*
X155938072Y-52527000D01*
X156100000Y-52527000D01*
X156124776Y-52524560D01*
X156148601Y-52517333D01*
X156170557Y-52505597D01*
X156189803Y-52489803D01*
X156205597Y-52470557D01*
X156217333Y-52448601D01*
X156224560Y-52424776D01*
X156227000Y-52400000D01*
X156227000Y-50643364D01*
X157187918Y-51342213D01*
G36*
X142676992Y-53455255D02*
G01*
X142727528Y-53621851D01*
X142809595Y-53775387D01*
X142920038Y-53909962D01*
X143054613Y-54020405D01*
X143208149Y-54102472D01*
X143374745Y-54153008D01*
X143547999Y-54170072D01*
X144030204Y-54170072D01*
X144596063Y-54735932D01*
X144622209Y-54767791D01*
X144654068Y-54793937D01*
X144654070Y-54793939D01*
X144675584Y-54811595D01*
X144749354Y-54872136D01*
X144894413Y-54949672D01*
X145051811Y-54997418D01*
X145174481Y-55009500D01*
X145174482Y-55009500D01*
X145215500Y-55013540D01*
X145256518Y-55009500D01*
X145440001Y-55009500D01*
X145440001Y-55292103D01*
X145357001Y-55283928D01*
X144456999Y-55283928D01*
X144283745Y-55300992D01*
X144117149Y-55351528D01*
X143963613Y-55433595D01*
X143829038Y-55544038D01*
X143718595Y-55678613D01*
X143636528Y-55832149D01*
X143585992Y-55998745D01*
X143568928Y-56171999D01*
X143568928Y-56202376D01*
X143466724Y-56257006D01*
X143451072Y-56269851D01*
X143451072Y-56180999D01*
X143434008Y-56007745D01*
X143383472Y-55841149D01*
X143301405Y-55687613D01*
X143190962Y-55553038D01*
X143056387Y-55442595D01*
X142902851Y-55360528D01*
X142736255Y-55309992D01*
X142563001Y-55292928D01*
X141662999Y-55292928D01*
X141591804Y-55299940D01*
X142459224Y-54345779D01*
X142472710Y-54334711D01*
X142504504Y-54295971D01*
X142515492Y-54283884D01*
X142525854Y-54269956D01*
X142558312Y-54230407D01*
X142566053Y-54215924D01*
X142575853Y-54202752D01*
X142597798Y-54156534D01*
X142621919Y-54111406D01*
X142626685Y-54095694D01*
X142633728Y-54080861D01*
X142646235Y-54031246D01*
X142661088Y-53982283D01*
X142662697Y-53965942D01*
X142666711Y-53950021D01*
X142669298Y-53898929D01*
X142671000Y-53881647D01*
X142671000Y-53865310D01*
X142673534Y-53815261D01*
X142671000Y-53797998D01*
X142671000Y-53394417D01*
X142676992Y-53455255D01*
G37*
X142676992Y-53455255D02*
X142727528Y-53621851D01*
X142809595Y-53775387D01*
X142920038Y-53909962D01*
X143054613Y-54020405D01*
X143208149Y-54102472D01*
X143374745Y-54153008D01*
X143547999Y-54170072D01*
X144030204Y-54170072D01*
X144596063Y-54735932D01*
X144622209Y-54767791D01*
X144654068Y-54793937D01*
X144654070Y-54793939D01*
X144675584Y-54811595D01*
X144749354Y-54872136D01*
X144894413Y-54949672D01*
X145051811Y-54997418D01*
X145174481Y-55009500D01*
X145174482Y-55009500D01*
X145215500Y-55013540D01*
X145256518Y-55009500D01*
X145440001Y-55009500D01*
X145440001Y-55292103D01*
X145357001Y-55283928D01*
X144456999Y-55283928D01*
X144283745Y-55300992D01*
X144117149Y-55351528D01*
X143963613Y-55433595D01*
X143829038Y-55544038D01*
X143718595Y-55678613D01*
X143636528Y-55832149D01*
X143585992Y-55998745D01*
X143568928Y-56171999D01*
X143568928Y-56202376D01*
X143466724Y-56257006D01*
X143451072Y-56269851D01*
X143451072Y-56180999D01*
X143434008Y-56007745D01*
X143383472Y-55841149D01*
X143301405Y-55687613D01*
X143190962Y-55553038D01*
X143056387Y-55442595D01*
X142902851Y-55360528D01*
X142736255Y-55309992D01*
X142563001Y-55292928D01*
X141662999Y-55292928D01*
X141591804Y-55299940D01*
X142459224Y-54345779D01*
X142472710Y-54334711D01*
X142504504Y-54295971D01*
X142515492Y-54283884D01*
X142525854Y-54269956D01*
X142558312Y-54230407D01*
X142566053Y-54215924D01*
X142575853Y-54202752D01*
X142597798Y-54156534D01*
X142621919Y-54111406D01*
X142626685Y-54095694D01*
X142633728Y-54080861D01*
X142646235Y-54031246D01*
X142661088Y-53982283D01*
X142662697Y-53965942D01*
X142666711Y-53950021D01*
X142669298Y-53898929D01*
X142671000Y-53881647D01*
X142671000Y-53865310D01*
X142673534Y-53815261D01*
X142671000Y-53797998D01*
X142671000Y-53394417D01*
X142676992Y-53455255D01*
G36*
X148273247Y-52407922D02*
G01*
X148277228Y-52432498D01*
X148285927Y-52455825D01*
X148299010Y-52477007D01*
X148315974Y-52495229D01*
X148336167Y-52509792D01*
X148358813Y-52520136D01*
X148383042Y-52525863D01*
X148400000Y-52527000D01*
X148561928Y-52527000D01*
X148561928Y-54450000D01*
X148574188Y-54574482D01*
X148608554Y-54687770D01*
X148600000Y-54686928D01*
X148185750Y-54690000D01*
X148027000Y-54848750D01*
X148027000Y-55773000D01*
X148047000Y-55773000D01*
X148047000Y-56027000D01*
X148027000Y-56027000D01*
X148027000Y-56047000D01*
X147773000Y-56047000D01*
X147773000Y-56027000D01*
X147753000Y-56027000D01*
X147753000Y-55773000D01*
X147773000Y-55773000D01*
X147773000Y-54848750D01*
X147614250Y-54690000D01*
X147200000Y-54686928D01*
X147110000Y-54695792D01*
X147110000Y-54616018D01*
X147114040Y-54575000D01*
X147108927Y-54523088D01*
X147097918Y-54411311D01*
X147050172Y-54253913D01*
X146972636Y-54108854D01*
X146901571Y-54022261D01*
X146949185Y-53983185D01*
X147028537Y-53886494D01*
X147087502Y-53776180D01*
X147123812Y-53656482D01*
X147136072Y-53532000D01*
X147133000Y-53117750D01*
X146974250Y-52959000D01*
X146050000Y-52959000D01*
X146050000Y-52979000D01*
X145796000Y-52979000D01*
X145796000Y-52959000D01*
X145776000Y-52959000D01*
X145776000Y-52705000D01*
X145796000Y-52705000D01*
X145796000Y-52685000D01*
X146050000Y-52685000D01*
X146050000Y-52705000D01*
X146974250Y-52705000D01*
X147122011Y-52557239D01*
X147145679Y-52554908D01*
X147303077Y-52507162D01*
X147448136Y-52429626D01*
X147575281Y-52325281D01*
X147601436Y-52293411D01*
X148226993Y-51667855D01*
X148273247Y-52407922D01*
G37*
X148273247Y-52407922D02*
X148277228Y-52432498D01*
X148285927Y-52455825D01*
X148299010Y-52477007D01*
X148315974Y-52495229D01*
X148336167Y-52509792D01*
X148358813Y-52520136D01*
X148383042Y-52525863D01*
X148400000Y-52527000D01*
X148561928Y-52527000D01*
X148561928Y-54450000D01*
X148574188Y-54574482D01*
X148608554Y-54687770D01*
X148600000Y-54686928D01*
X148185750Y-54690000D01*
X148027000Y-54848750D01*
X148027000Y-55773000D01*
X148047000Y-55773000D01*
X148047000Y-56027000D01*
X148027000Y-56027000D01*
X148027000Y-56047000D01*
X147773000Y-56047000D01*
X147773000Y-56027000D01*
X147753000Y-56027000D01*
X147753000Y-55773000D01*
X147773000Y-55773000D01*
X147773000Y-54848750D01*
X147614250Y-54690000D01*
X147200000Y-54686928D01*
X147110000Y-54695792D01*
X147110000Y-54616018D01*
X147114040Y-54575000D01*
X147108927Y-54523088D01*
X147097918Y-54411311D01*
X147050172Y-54253913D01*
X146972636Y-54108854D01*
X146901571Y-54022261D01*
X146949185Y-53983185D01*
X147028537Y-53886494D01*
X147087502Y-53776180D01*
X147123812Y-53656482D01*
X147136072Y-53532000D01*
X147133000Y-53117750D01*
X146974250Y-52959000D01*
X146050000Y-52959000D01*
X146050000Y-52979000D01*
X145796000Y-52979000D01*
X145796000Y-52959000D01*
X145776000Y-52959000D01*
X145776000Y-52705000D01*
X145796000Y-52705000D01*
X145796000Y-52685000D01*
X146050000Y-52685000D01*
X146050000Y-52705000D01*
X146974250Y-52705000D01*
X147122011Y-52557239D01*
X147145679Y-52554908D01*
X147303077Y-52507162D01*
X147448136Y-52429626D01*
X147575281Y-52325281D01*
X147601436Y-52293411D01*
X148226993Y-51667855D01*
X148273247Y-52407922D01*
%TD*%
M02*
