%FSLAX45Y45*%
G04 Gerber Fmt 4.5, Leading zero omitted, Abs format (unit mm)*
G04 Created by KiCad (PCBNEW (5.1.6-0)) date 2021-12-12 18:29:00*
%MOMM*%
%LPD*%
G01*
G04 APERTURE LIST*
%TA.AperFunction,Profile*%
%ADD10C,0.100000*%
%TD*%
%ADD11C,0.200000*%
%ADD12C,0.300000*%
G04 APERTURE END LIST*
D10*
X15621000Y-4572000D02*
X15621000Y-4978400D01*
X14808200Y-4572000D02*
X15621000Y-4572000D01*
X14808200Y-4978400D02*
X14808200Y-4572000D01*
X14668500Y-5080000D02*
X14808200Y-4978400D01*
X14351000Y-5080000D02*
X14668500Y-5080000D01*
X14198600Y-5232400D02*
X14351000Y-5080000D01*
X14198600Y-5384800D02*
X14198600Y-5232400D01*
X14071600Y-5524500D02*
X14198600Y-5384800D01*
X14071600Y-5676900D02*
X14071600Y-5524500D01*
X13868400Y-5854700D02*
X14071600Y-5676900D01*
X13868400Y-6299200D02*
X13868400Y-5854700D01*
X13766800Y-6400800D02*
X13868400Y-6299200D01*
X13411200Y-6400800D02*
X13766800Y-6400800D01*
X13411200Y-6908800D02*
X13411200Y-6400800D01*
X17018000Y-6908800D02*
X13411200Y-6908800D01*
X17018000Y-6400800D02*
X17018000Y-6908800D01*
X16662400Y-6400800D02*
X17018000Y-6400800D01*
X16535400Y-6273800D02*
X16662400Y-6400800D01*
X16535400Y-5829300D02*
X16535400Y-6273800D01*
X16370300Y-5676900D02*
X16535400Y-5829300D01*
X16370300Y-5524500D02*
X16370300Y-5676900D01*
X16256000Y-5384800D02*
X16370300Y-5524500D01*
X16256000Y-5232400D02*
X16256000Y-5384800D01*
X16103600Y-5080000D02*
X16256000Y-5232400D01*
X15760700Y-5080000D02*
X16103600Y-5080000D01*
X15621000Y-4978400D02*
X15760700Y-5080000D01*
D11*
X14224401Y-6207999D02*
X14264401Y-6247999D01*
X14264401Y-6207999D02*
X14224401Y-6247999D01*
X14227300Y-6454900D02*
X14267300Y-6494900D01*
X14267300Y-6454900D02*
X14227300Y-6494900D01*
X14267500Y-5466400D02*
X14307500Y-5506400D01*
X14307500Y-5466400D02*
X14267500Y-5506400D01*
X14661200Y-5618800D02*
X14701200Y-5658800D01*
X14701200Y-5618800D02*
X14661200Y-5658800D01*
X14661200Y-5872800D02*
X14701200Y-5912800D01*
X14701200Y-5872800D02*
X14661200Y-5912800D01*
X14775500Y-5288600D02*
X14815500Y-5328600D01*
X14815500Y-5288600D02*
X14775500Y-5328600D01*
X14781300Y-6451200D02*
X14821300Y-6491200D01*
X14821300Y-6451200D02*
X14781300Y-6491200D01*
X14905640Y-5996659D02*
X14945640Y-6036659D01*
X14945640Y-5996659D02*
X14905640Y-6036659D01*
X15193499Y-6166001D02*
X15233499Y-6206001D01*
X15233499Y-6166001D02*
X15193499Y-6206001D01*
X15194600Y-5656900D02*
X15234600Y-5696900D01*
X15234600Y-5656900D02*
X15194600Y-5696900D01*
X15194600Y-5872800D02*
X15234600Y-5912800D01*
X15234600Y-5872800D02*
X15194600Y-5912800D01*
X15196800Y-6429400D02*
X15236800Y-6469400D01*
X15236800Y-6429400D02*
X15196800Y-6469400D01*
X15499400Y-5910900D02*
X15539400Y-5950900D01*
X15539400Y-5910900D02*
X15499400Y-5950900D01*
X15537500Y-5745800D02*
X15577500Y-5785800D01*
X15577500Y-5745800D02*
X15537500Y-5785800D01*
X15750800Y-6421500D02*
X15790800Y-6461500D01*
X15790800Y-6421500D02*
X15750800Y-6461500D01*
X15778800Y-5466400D02*
X15818800Y-5506400D01*
X15818800Y-5466400D02*
X15778800Y-5506400D01*
X16058200Y-5466400D02*
X16098200Y-5506400D01*
X16098200Y-5466400D02*
X16058200Y-5506400D01*
D12*
X13692628Y-7379514D02*
X13692628Y-7079514D01*
X13764057Y-7079514D01*
X13806914Y-7093800D01*
X13835486Y-7122371D01*
X13849771Y-7150943D01*
X13864057Y-7208086D01*
X13864057Y-7250943D01*
X13849771Y-7308086D01*
X13835486Y-7336657D01*
X13806914Y-7365229D01*
X13764057Y-7379514D01*
X13692628Y-7379514D01*
X13992628Y-7379514D02*
X13992628Y-7179514D01*
X13992628Y-7236657D02*
X14006914Y-7208086D01*
X14021200Y-7193800D01*
X14049771Y-7179514D01*
X14078343Y-7179514D01*
X14178343Y-7379514D02*
X14178343Y-7179514D01*
X14178343Y-7079514D02*
X14164057Y-7093800D01*
X14178343Y-7108086D01*
X14192628Y-7093800D01*
X14178343Y-7079514D01*
X14178343Y-7108086D01*
X14364057Y-7379514D02*
X14335486Y-7365229D01*
X14321200Y-7336657D01*
X14321200Y-7079514D01*
X14521200Y-7379514D02*
X14492628Y-7365229D01*
X14478343Y-7336657D01*
X14478343Y-7079514D01*
X14864057Y-7379514D02*
X14864057Y-7079514D01*
X14964057Y-7293800D01*
X15064057Y-7079514D01*
X15064057Y-7379514D01*
X15335486Y-7379514D02*
X15335486Y-7222371D01*
X15321200Y-7193800D01*
X15292628Y-7179514D01*
X15235486Y-7179514D01*
X15206914Y-7193800D01*
X15335486Y-7365229D02*
X15306914Y-7379514D01*
X15235486Y-7379514D01*
X15206914Y-7365229D01*
X15192628Y-7336657D01*
X15192628Y-7308086D01*
X15206914Y-7279514D01*
X15235486Y-7265229D01*
X15306914Y-7265229D01*
X15335486Y-7250943D01*
X15478343Y-7179514D02*
X15478343Y-7479514D01*
X15478343Y-7193800D02*
X15506914Y-7179514D01*
X15564057Y-7179514D01*
X15592628Y-7193800D01*
X15606914Y-7208086D01*
X15621200Y-7236657D01*
X15621200Y-7322371D01*
X15606914Y-7350943D01*
X15592628Y-7365229D01*
X15564057Y-7379514D01*
X15506914Y-7379514D01*
X15478343Y-7365229D01*
X15749771Y-7350943D02*
X15764057Y-7365229D01*
X15749771Y-7379514D01*
X15735486Y-7365229D01*
X15749771Y-7350943D01*
X15749771Y-7379514D01*
X15749771Y-7193800D02*
X15764057Y-7208086D01*
X15749771Y-7222371D01*
X15735486Y-7208086D01*
X15749771Y-7193800D01*
X15749771Y-7222371D01*
X13366200Y-7853800D02*
X13406200Y-7893800D01*
X13406200Y-7853800D02*
X13366200Y-7893800D01*
X13749771Y-7709514D02*
X13778343Y-7709514D01*
X13806914Y-7723800D01*
X13821200Y-7738086D01*
X13835486Y-7766657D01*
X13849771Y-7823800D01*
X13849771Y-7895229D01*
X13835486Y-7952371D01*
X13821200Y-7980943D01*
X13806914Y-7995229D01*
X13778343Y-8009514D01*
X13749771Y-8009514D01*
X13721200Y-7995229D01*
X13706914Y-7980943D01*
X13692628Y-7952371D01*
X13678343Y-7895229D01*
X13678343Y-7823800D01*
X13692628Y-7766657D01*
X13706914Y-7738086D01*
X13721200Y-7723800D01*
X13749771Y-7709514D01*
X13978343Y-7980943D02*
X13992628Y-7995229D01*
X13978343Y-8009514D01*
X13964057Y-7995229D01*
X13978343Y-7980943D01*
X13978343Y-8009514D01*
X14249771Y-7809514D02*
X14249771Y-8009514D01*
X14178343Y-7695229D02*
X14106914Y-7909514D01*
X14292628Y-7909514D01*
X14464057Y-7709514D02*
X14492628Y-7709514D01*
X14521200Y-7723800D01*
X14535486Y-7738086D01*
X14549771Y-7766657D01*
X14564057Y-7823800D01*
X14564057Y-7895229D01*
X14549771Y-7952371D01*
X14535486Y-7980943D01*
X14521200Y-7995229D01*
X14492628Y-8009514D01*
X14464057Y-8009514D01*
X14435486Y-7995229D01*
X14421200Y-7980943D01*
X14406914Y-7952371D01*
X14392628Y-7895229D01*
X14392628Y-7823800D01*
X14406914Y-7766657D01*
X14421200Y-7738086D01*
X14435486Y-7723800D01*
X14464057Y-7709514D01*
X14692628Y-8009514D02*
X14692628Y-7809514D01*
X14692628Y-7838086D02*
X14706914Y-7823800D01*
X14735486Y-7809514D01*
X14778343Y-7809514D01*
X14806914Y-7823800D01*
X14821200Y-7852371D01*
X14821200Y-8009514D01*
X14821200Y-7852371D02*
X14835486Y-7823800D01*
X14864057Y-7809514D01*
X14906914Y-7809514D01*
X14935486Y-7823800D01*
X14949771Y-7852371D01*
X14949771Y-8009514D01*
X15092628Y-8009514D02*
X15092628Y-7809514D01*
X15092628Y-7838086D02*
X15106914Y-7823800D01*
X15135486Y-7809514D01*
X15178343Y-7809514D01*
X15206914Y-7823800D01*
X15221200Y-7852371D01*
X15221200Y-8009514D01*
X15221200Y-7852371D02*
X15235486Y-7823800D01*
X15264057Y-7809514D01*
X15306914Y-7809514D01*
X15335486Y-7823800D01*
X15349771Y-7852371D01*
X15349771Y-8009514D01*
X15935486Y-7695229D02*
X15678343Y-8080943D01*
X16321200Y-7709514D02*
X16349771Y-7709514D01*
X16378343Y-7723800D01*
X16392628Y-7738086D01*
X16406914Y-7766657D01*
X16421200Y-7823800D01*
X16421200Y-7895229D01*
X16406914Y-7952371D01*
X16392628Y-7980943D01*
X16378343Y-7995229D01*
X16349771Y-8009514D01*
X16321200Y-8009514D01*
X16292628Y-7995229D01*
X16278343Y-7980943D01*
X16264057Y-7952371D01*
X16249771Y-7895229D01*
X16249771Y-7823800D01*
X16264057Y-7766657D01*
X16278343Y-7738086D01*
X16292628Y-7723800D01*
X16321200Y-7709514D01*
X16549771Y-7980943D02*
X16564057Y-7995229D01*
X16549771Y-8009514D01*
X16535486Y-7995229D01*
X16549771Y-7980943D01*
X16549771Y-8009514D01*
X16749771Y-7709514D02*
X16778343Y-7709514D01*
X16806914Y-7723800D01*
X16821200Y-7738086D01*
X16835486Y-7766657D01*
X16849771Y-7823800D01*
X16849771Y-7895229D01*
X16835486Y-7952371D01*
X16821200Y-7980943D01*
X16806914Y-7995229D01*
X16778343Y-8009514D01*
X16749771Y-8009514D01*
X16721200Y-7995229D01*
X16706914Y-7980943D01*
X16692628Y-7952371D01*
X16678343Y-7895229D01*
X16678343Y-7823800D01*
X16692628Y-7766657D01*
X16706914Y-7738086D01*
X16721200Y-7723800D01*
X16749771Y-7709514D01*
X17135486Y-8009514D02*
X16964057Y-8009514D01*
X17049771Y-8009514D02*
X17049771Y-7709514D01*
X17021200Y-7752371D01*
X16992628Y-7780943D01*
X16964057Y-7795229D01*
X17392628Y-7709514D02*
X17335486Y-7709514D01*
X17306914Y-7723800D01*
X17292628Y-7738086D01*
X17264057Y-7780943D01*
X17249771Y-7838086D01*
X17249771Y-7952371D01*
X17264057Y-7980943D01*
X17278343Y-7995229D01*
X17306914Y-8009514D01*
X17364057Y-8009514D01*
X17392628Y-7995229D01*
X17406914Y-7980943D01*
X17421200Y-7952371D01*
X17421200Y-7880943D01*
X17406914Y-7852371D01*
X17392628Y-7838086D01*
X17364057Y-7823800D01*
X17306914Y-7823800D01*
X17278343Y-7838086D01*
X17264057Y-7852371D01*
X17249771Y-7880943D01*
X17535486Y-7709514D02*
X17535486Y-7766657D01*
X17649771Y-7709514D02*
X17649771Y-7766657D01*
X18092628Y-8123800D02*
X18078343Y-8109514D01*
X18049771Y-8066657D01*
X18035486Y-8038086D01*
X18021200Y-7995229D01*
X18006914Y-7923800D01*
X18006914Y-7866657D01*
X18021200Y-7795229D01*
X18035486Y-7752371D01*
X18049771Y-7723800D01*
X18078343Y-7680943D01*
X18092628Y-7666657D01*
X18364057Y-8009514D02*
X18192628Y-8009514D01*
X18278343Y-8009514D02*
X18278343Y-7709514D01*
X18249771Y-7752371D01*
X18221200Y-7780943D01*
X18192628Y-7795229D01*
X18464057Y-7709514D02*
X18664057Y-7709514D01*
X18535486Y-8009514D01*
X19006914Y-8009514D02*
X19006914Y-7709514D01*
X19135486Y-8009514D02*
X19135486Y-7852371D01*
X19121200Y-7823800D01*
X19092628Y-7809514D01*
X19049771Y-7809514D01*
X19021200Y-7823800D01*
X19006914Y-7838086D01*
X19321200Y-8009514D02*
X19292628Y-7995229D01*
X19278343Y-7980943D01*
X19264057Y-7952371D01*
X19264057Y-7866657D01*
X19278343Y-7838086D01*
X19292628Y-7823800D01*
X19321200Y-7809514D01*
X19364057Y-7809514D01*
X19392628Y-7823800D01*
X19406914Y-7838086D01*
X19421200Y-7866657D01*
X19421200Y-7952371D01*
X19406914Y-7980943D01*
X19392628Y-7995229D01*
X19364057Y-8009514D01*
X19321200Y-8009514D01*
X19592628Y-8009514D02*
X19564057Y-7995229D01*
X19549771Y-7966657D01*
X19549771Y-7709514D01*
X19821200Y-7995229D02*
X19792628Y-8009514D01*
X19735486Y-8009514D01*
X19706914Y-7995229D01*
X19692628Y-7966657D01*
X19692628Y-7852371D01*
X19706914Y-7823800D01*
X19735486Y-7809514D01*
X19792628Y-7809514D01*
X19821200Y-7823800D01*
X19835486Y-7852371D01*
X19835486Y-7880943D01*
X19692628Y-7909514D01*
X19949771Y-7995229D02*
X19978343Y-8009514D01*
X20035486Y-8009514D01*
X20064057Y-7995229D01*
X20078343Y-7966657D01*
X20078343Y-7952371D01*
X20064057Y-7923800D01*
X20035486Y-7909514D01*
X19992628Y-7909514D01*
X19964057Y-7895229D01*
X19949771Y-7866657D01*
X19949771Y-7852371D01*
X19964057Y-7823800D01*
X19992628Y-7809514D01*
X20035486Y-7809514D01*
X20064057Y-7823800D01*
X20178343Y-8123800D02*
X20192628Y-8109514D01*
X20221200Y-8066657D01*
X20235486Y-8038086D01*
X20249771Y-7995229D01*
X20264057Y-7923800D01*
X20264057Y-7866657D01*
X20249771Y-7795229D01*
X20235486Y-7752371D01*
X20221200Y-7723800D01*
X20192628Y-7680943D01*
X20178343Y-7666657D01*
M02*
