%TF.GenerationSoftware,KiCad,Pcbnew,(5.1.6-0)*%
%TF.CreationDate,2021-12-12T18:28:57+01:00*%
%TF.ProjectId,ScsiTerm,53637369-5465-4726-9d2e-6b696361645f,rev?*%
%TF.SameCoordinates,Original*%
%TF.FileFunction,Legend,Bot*%
%TF.FilePolarity,Positive*%
%FSLAX46Y46*%
G04 Gerber Fmt 4.6, Leading zero omitted, Abs format (unit mm)*
G04 Created by KiCad (PCBNEW (5.1.6-0)) date 2021-12-12 18:28:57*
%MOMM*%
%LPD*%
G01*
G04 APERTURE LIST*
%ADD10C,0.150000*%
%ADD11C,0.120000*%
%ADD12C,0.100000*%
G04 APERTURE END LIST*
D10*
X161815857Y-53366142D02*
X161815857Y-52466142D01*
X161815857Y-52894714D02*
X161301571Y-52894714D01*
X161301571Y-53366142D02*
X161301571Y-52466142D01*
X160873000Y-53280428D02*
X160830142Y-53323285D01*
X160873000Y-53366142D01*
X160915857Y-53323285D01*
X160873000Y-53280428D01*
X160873000Y-53366142D01*
X159244428Y-53366142D02*
X159544428Y-52937571D01*
X159758714Y-53366142D02*
X159758714Y-52466142D01*
X159415857Y-52466142D01*
X159330142Y-52509000D01*
X159287285Y-52551857D01*
X159244428Y-52637571D01*
X159244428Y-52766142D01*
X159287285Y-52851857D01*
X159330142Y-52894714D01*
X159415857Y-52937571D01*
X159758714Y-52937571D01*
X158858714Y-53366142D02*
X158858714Y-52766142D01*
X158858714Y-52466142D02*
X158901571Y-52509000D01*
X158858714Y-52551857D01*
X158815857Y-52509000D01*
X158858714Y-52466142D01*
X158858714Y-52551857D01*
X158044428Y-53323285D02*
X158130142Y-53366142D01*
X158301571Y-53366142D01*
X158387285Y-53323285D01*
X158430142Y-53280428D01*
X158473000Y-53194714D01*
X158473000Y-52937571D01*
X158430142Y-52851857D01*
X158387285Y-52809000D01*
X158301571Y-52766142D01*
X158130142Y-52766142D01*
X158044428Y-52809000D01*
X157658714Y-53366142D02*
X157658714Y-52466142D01*
X157273000Y-53366142D02*
X157273000Y-52894714D01*
X157315857Y-52809000D01*
X157401571Y-52766142D01*
X157530142Y-52766142D01*
X157615857Y-52809000D01*
X157658714Y-52851857D01*
X156973000Y-52766142D02*
X156630142Y-52766142D01*
X156844428Y-52466142D02*
X156844428Y-53237571D01*
X156801571Y-53323285D01*
X156715857Y-53366142D01*
X156630142Y-53366142D01*
X155987285Y-53323285D02*
X156073000Y-53366142D01*
X156244428Y-53366142D01*
X156330142Y-53323285D01*
X156373000Y-53237571D01*
X156373000Y-52894714D01*
X156330142Y-52809000D01*
X156244428Y-52766142D01*
X156073000Y-52766142D01*
X155987285Y-52809000D01*
X155944428Y-52894714D01*
X155944428Y-52980428D01*
X156373000Y-53066142D01*
X155558714Y-53366142D02*
X155558714Y-52766142D01*
X155558714Y-52937571D02*
X155515857Y-52851857D01*
X155473000Y-52809000D01*
X155387285Y-52766142D01*
X155301571Y-52766142D01*
X163042857Y-58999380D02*
X163042857Y-57999380D01*
X162804761Y-57999380D01*
X162661904Y-58047000D01*
X162566666Y-58142238D01*
X162519047Y-58237476D01*
X162471428Y-58427952D01*
X162471428Y-58570809D01*
X162519047Y-58761285D01*
X162566666Y-58856523D01*
X162661904Y-58951761D01*
X162804761Y-58999380D01*
X163042857Y-58999380D01*
X161709523Y-58475571D02*
X161566666Y-58523190D01*
X161519047Y-58570809D01*
X161471428Y-58666047D01*
X161471428Y-58808904D01*
X161519047Y-58904142D01*
X161566666Y-58951761D01*
X161661904Y-58999380D01*
X162042857Y-58999380D01*
X162042857Y-57999380D01*
X161709523Y-57999380D01*
X161614285Y-58047000D01*
X161566666Y-58094619D01*
X161519047Y-58189857D01*
X161519047Y-58285095D01*
X161566666Y-58380333D01*
X161614285Y-58427952D01*
X161709523Y-58475571D01*
X162042857Y-58475571D01*
X161090476Y-58094619D02*
X161042857Y-58047000D01*
X160947619Y-57999380D01*
X160709523Y-57999380D01*
X160614285Y-58047000D01*
X160566666Y-58094619D01*
X160519047Y-58189857D01*
X160519047Y-58285095D01*
X160566666Y-58427952D01*
X161138095Y-58999380D01*
X160519047Y-58999380D01*
X159614285Y-57999380D02*
X160090476Y-57999380D01*
X160138095Y-58475571D01*
X160090476Y-58427952D01*
X159995238Y-58380333D01*
X159757142Y-58380333D01*
X159661904Y-58427952D01*
X159614285Y-58475571D01*
X159566666Y-58570809D01*
X159566666Y-58808904D01*
X159614285Y-58904142D01*
X159661904Y-58951761D01*
X159757142Y-58999380D01*
X159995238Y-58999380D01*
X160090476Y-58951761D01*
X160138095Y-58904142D01*
X157947619Y-58999380D02*
X157947619Y-58475571D01*
X157995238Y-58380333D01*
X158090476Y-58332714D01*
X158280952Y-58332714D01*
X158376190Y-58380333D01*
X157947619Y-58951761D02*
X158042857Y-58999380D01*
X158280952Y-58999380D01*
X158376190Y-58951761D01*
X158423809Y-58856523D01*
X158423809Y-58761285D01*
X158376190Y-58666047D01*
X158280952Y-58618428D01*
X158042857Y-58618428D01*
X157947619Y-58570809D01*
X157042857Y-58951761D02*
X157138095Y-58999380D01*
X157328571Y-58999380D01*
X157423809Y-58951761D01*
X157471428Y-58904142D01*
X157519047Y-58808904D01*
X157519047Y-58523190D01*
X157471428Y-58427952D01*
X157423809Y-58380333D01*
X157328571Y-58332714D01*
X157138095Y-58332714D01*
X157042857Y-58380333D01*
X156757142Y-58332714D02*
X156376190Y-58332714D01*
X156614285Y-57999380D02*
X156614285Y-58856523D01*
X156566666Y-58951761D01*
X156471428Y-58999380D01*
X156376190Y-58999380D01*
X156042857Y-58999380D02*
X156042857Y-58332714D01*
X156042857Y-57999380D02*
X156090476Y-58047000D01*
X156042857Y-58094619D01*
X155995238Y-58047000D01*
X156042857Y-57999380D01*
X156042857Y-58094619D01*
X155661904Y-58332714D02*
X155423809Y-58999380D01*
X155185714Y-58332714D01*
X154423809Y-58951761D02*
X154519047Y-58999380D01*
X154709523Y-58999380D01*
X154804761Y-58951761D01*
X154852380Y-58856523D01*
X154852380Y-58475571D01*
X154804761Y-58380333D01*
X154709523Y-58332714D01*
X154519047Y-58332714D01*
X154423809Y-58380333D01*
X154376190Y-58475571D01*
X154376190Y-58570809D01*
X154852380Y-58666047D01*
X153233333Y-58951761D02*
X153090476Y-58999380D01*
X152852380Y-58999380D01*
X152757142Y-58951761D01*
X152709523Y-58904142D01*
X152661904Y-58808904D01*
X152661904Y-58713666D01*
X152709523Y-58618428D01*
X152757142Y-58570809D01*
X152852380Y-58523190D01*
X153042857Y-58475571D01*
X153138095Y-58427952D01*
X153185714Y-58380333D01*
X153233333Y-58285095D01*
X153233333Y-58189857D01*
X153185714Y-58094619D01*
X153138095Y-58047000D01*
X153042857Y-57999380D01*
X152804761Y-57999380D01*
X152661904Y-58047000D01*
X151661904Y-58904142D02*
X151709523Y-58951761D01*
X151852380Y-58999380D01*
X151947619Y-58999380D01*
X152090476Y-58951761D01*
X152185714Y-58856523D01*
X152233333Y-58761285D01*
X152280952Y-58570809D01*
X152280952Y-58427952D01*
X152233333Y-58237476D01*
X152185714Y-58142238D01*
X152090476Y-58047000D01*
X151947619Y-57999380D01*
X151852380Y-57999380D01*
X151709523Y-58047000D01*
X151661904Y-58094619D01*
X151280952Y-58951761D02*
X151138095Y-58999380D01*
X150900000Y-58999380D01*
X150804761Y-58951761D01*
X150757142Y-58904142D01*
X150709523Y-58808904D01*
X150709523Y-58713666D01*
X150757142Y-58618428D01*
X150804761Y-58570809D01*
X150900000Y-58523190D01*
X151090476Y-58475571D01*
X151185714Y-58427952D01*
X151233333Y-58380333D01*
X151280952Y-58285095D01*
X151280952Y-58189857D01*
X151233333Y-58094619D01*
X151185714Y-58047000D01*
X151090476Y-57999380D01*
X150852380Y-57999380D01*
X150709523Y-58047000D01*
X150280952Y-58999380D02*
X150280952Y-57999380D01*
X149185714Y-58332714D02*
X148804761Y-58332714D01*
X149042857Y-57999380D02*
X149042857Y-58856523D01*
X148995238Y-58951761D01*
X148900000Y-58999380D01*
X148804761Y-58999380D01*
X148090476Y-58951761D02*
X148185714Y-58999380D01*
X148376190Y-58999380D01*
X148471428Y-58951761D01*
X148519047Y-58856523D01*
X148519047Y-58475571D01*
X148471428Y-58380333D01*
X148376190Y-58332714D01*
X148185714Y-58332714D01*
X148090476Y-58380333D01*
X148042857Y-58475571D01*
X148042857Y-58570809D01*
X148519047Y-58666047D01*
X147614285Y-58999380D02*
X147614285Y-58332714D01*
X147614285Y-58523190D02*
X147566666Y-58427952D01*
X147519047Y-58380333D01*
X147423809Y-58332714D01*
X147328571Y-58332714D01*
X146995238Y-58999380D02*
X146995238Y-58332714D01*
X146995238Y-58427952D02*
X146947619Y-58380333D01*
X146852380Y-58332714D01*
X146709523Y-58332714D01*
X146614285Y-58380333D01*
X146566666Y-58475571D01*
X146566666Y-58999380D01*
X146566666Y-58475571D02*
X146519047Y-58380333D01*
X146423809Y-58332714D01*
X146280952Y-58332714D01*
X146185714Y-58380333D01*
X146138095Y-58475571D01*
X146138095Y-58999380D01*
X145661904Y-58999380D02*
X145661904Y-58332714D01*
X145661904Y-57999380D02*
X145709523Y-58047000D01*
X145661904Y-58094619D01*
X145614285Y-58047000D01*
X145661904Y-57999380D01*
X145661904Y-58094619D01*
X145185714Y-58332714D02*
X145185714Y-58999380D01*
X145185714Y-58427952D02*
X145138095Y-58380333D01*
X145042857Y-58332714D01*
X144900000Y-58332714D01*
X144804761Y-58380333D01*
X144757142Y-58475571D01*
X144757142Y-58999380D01*
X143852380Y-58999380D02*
X143852380Y-58475571D01*
X143900000Y-58380333D01*
X143995238Y-58332714D01*
X144185714Y-58332714D01*
X144280952Y-58380333D01*
X143852380Y-58951761D02*
X143947619Y-58999380D01*
X144185714Y-58999380D01*
X144280952Y-58951761D01*
X144328571Y-58856523D01*
X144328571Y-58761285D01*
X144280952Y-58666047D01*
X144185714Y-58618428D01*
X143947619Y-58618428D01*
X143852380Y-58570809D01*
X143519047Y-58332714D02*
X143138095Y-58332714D01*
X143376190Y-57999380D02*
X143376190Y-58856523D01*
X143328571Y-58951761D01*
X143233333Y-58999380D01*
X143138095Y-58999380D01*
X142661904Y-58999380D02*
X142757142Y-58951761D01*
X142804761Y-58904142D01*
X142852380Y-58808904D01*
X142852380Y-58523190D01*
X142804761Y-58427952D01*
X142757142Y-58380333D01*
X142661904Y-58332714D01*
X142519047Y-58332714D01*
X142423809Y-58380333D01*
X142376190Y-58427952D01*
X142328571Y-58523190D01*
X142328571Y-58808904D01*
X142376190Y-58904142D01*
X142423809Y-58951761D01*
X142519047Y-58999380D01*
X142661904Y-58999380D01*
X141900000Y-58999380D02*
X141900000Y-58332714D01*
X141900000Y-58523190D02*
X141852380Y-58427952D01*
X141804761Y-58380333D01*
X141709523Y-58332714D01*
X141614285Y-58332714D01*
X160292857Y-51410428D02*
X160378571Y-51367571D01*
X160550000Y-51367571D01*
X160635714Y-51410428D01*
X160721428Y-51496142D01*
X160764285Y-51581857D01*
X160764285Y-51753285D01*
X160721428Y-51839000D01*
X160635714Y-51924714D01*
X160550000Y-51967571D01*
X160378571Y-51967571D01*
X160292857Y-51924714D01*
X160464285Y-51067571D02*
X160678571Y-51110428D01*
X160892857Y-51239000D01*
X161021428Y-51453285D01*
X161064285Y-51667571D01*
X161021428Y-51881857D01*
X160892857Y-52096142D01*
X160678571Y-52224714D01*
X160464285Y-52267571D01*
X160250000Y-52224714D01*
X160035714Y-52096142D01*
X159907142Y-51881857D01*
X159864285Y-51667571D01*
X159907142Y-51453285D01*
X160035714Y-51239000D01*
X160250000Y-51110428D01*
X160464285Y-51067571D01*
X159521428Y-51281857D02*
X159478571Y-51239000D01*
X159392857Y-51196142D01*
X159178571Y-51196142D01*
X159092857Y-51239000D01*
X159050000Y-51281857D01*
X159007142Y-51367571D01*
X159007142Y-51453285D01*
X159050000Y-51581857D01*
X159564285Y-52096142D01*
X159007142Y-52096142D01*
X158450000Y-51196142D02*
X158364285Y-51196142D01*
X158278571Y-51239000D01*
X158235714Y-51281857D01*
X158192857Y-51367571D01*
X158150000Y-51539000D01*
X158150000Y-51753285D01*
X158192857Y-51924714D01*
X158235714Y-52010428D01*
X158278571Y-52053285D01*
X158364285Y-52096142D01*
X158450000Y-52096142D01*
X158535714Y-52053285D01*
X158578571Y-52010428D01*
X158621428Y-51924714D01*
X158664285Y-51753285D01*
X158664285Y-51539000D01*
X158621428Y-51367571D01*
X158578571Y-51281857D01*
X158535714Y-51239000D01*
X158450000Y-51196142D01*
X157807142Y-51281857D02*
X157764285Y-51239000D01*
X157678571Y-51196142D01*
X157464285Y-51196142D01*
X157378571Y-51239000D01*
X157335714Y-51281857D01*
X157292857Y-51367571D01*
X157292857Y-51453285D01*
X157335714Y-51581857D01*
X157850000Y-52096142D01*
X157292857Y-52096142D01*
X156435714Y-52096142D02*
X156950000Y-52096142D01*
X156692857Y-52096142D02*
X156692857Y-51196142D01*
X156778571Y-51324714D01*
X156864285Y-51410428D01*
X156950000Y-51453285D01*
X154674571Y-46751142D02*
X154160285Y-46751142D01*
X154417428Y-47651142D02*
X154417428Y-46751142D01*
X153860285Y-47308285D02*
X153174571Y-47308285D01*
X152574571Y-46751142D02*
X152488857Y-46751142D01*
X152403142Y-46794000D01*
X152360285Y-46836857D01*
X152317428Y-46922571D01*
X152274571Y-47094000D01*
X152274571Y-47308285D01*
X152317428Y-47479714D01*
X152360285Y-47565428D01*
X152403142Y-47608285D01*
X152488857Y-47651142D01*
X152574571Y-47651142D01*
X152660285Y-47608285D01*
X152703142Y-47565428D01*
X152746000Y-47479714D01*
X152788857Y-47308285D01*
X152788857Y-47094000D01*
X152746000Y-46922571D01*
X152703142Y-46836857D01*
X152660285Y-46794000D01*
X152574571Y-46751142D01*
X151760285Y-47136857D02*
X151846000Y-47094000D01*
X151888857Y-47051142D01*
X151931714Y-46965428D01*
X151931714Y-46922571D01*
X151888857Y-46836857D01*
X151846000Y-46794000D01*
X151760285Y-46751142D01*
X151588857Y-46751142D01*
X151503142Y-46794000D01*
X151460285Y-46836857D01*
X151417428Y-46922571D01*
X151417428Y-46965428D01*
X151460285Y-47051142D01*
X151503142Y-47094000D01*
X151588857Y-47136857D01*
X151760285Y-47136857D01*
X151846000Y-47179714D01*
X151888857Y-47222571D01*
X151931714Y-47308285D01*
X151931714Y-47479714D01*
X151888857Y-47565428D01*
X151846000Y-47608285D01*
X151760285Y-47651142D01*
X151588857Y-47651142D01*
X151503142Y-47608285D01*
X151460285Y-47565428D01*
X151417428Y-47479714D01*
X151417428Y-47308285D01*
X151460285Y-47222571D01*
X151503142Y-47179714D01*
X151588857Y-47136857D01*
X150560285Y-47651142D02*
X151074571Y-47651142D01*
X150817428Y-47651142D02*
X150817428Y-46751142D01*
X150903142Y-46879714D01*
X150988857Y-46965428D01*
X151074571Y-47008285D01*
X149746000Y-46751142D02*
X150174571Y-46751142D01*
X150217428Y-47179714D01*
X150174571Y-47136857D01*
X150088857Y-47094000D01*
X149874571Y-47094000D01*
X149788857Y-47136857D01*
X149746000Y-47179714D01*
X149703142Y-47265428D01*
X149703142Y-47479714D01*
X149746000Y-47565428D01*
X149788857Y-47608285D01*
X149874571Y-47651142D01*
X150088857Y-47651142D01*
X150174571Y-47608285D01*
X150217428Y-47565428D01*
D11*
X149352000Y-51689000D02*
X149352000Y-51816000D01*
X149479000Y-51689000D02*
X149352000Y-51689000D01*
X149352000Y-51689000D02*
X149479000Y-51689000D01*
X149733000Y-52070000D02*
X149352000Y-51689000D01*
X149352000Y-51689000D02*
X149733000Y-52070000D01*
X149225000Y-52070000D02*
X149352000Y-52070000D01*
X149225000Y-52070000D02*
X149225000Y-52197000D01*
X149606000Y-52451000D02*
X149225000Y-52070000D01*
X150495000Y-52705000D02*
X150876000Y-52705000D01*
X150368000Y-52705000D02*
X150495000Y-52705000D01*
X150495000Y-52705000D02*
X150368000Y-52705000D01*
X149860000Y-52705000D02*
X149098000Y-52705000D01*
X149860000Y-52324000D02*
X149860000Y-53086000D01*
X149860000Y-52705000D02*
X150368000Y-52324000D01*
X150368000Y-53086000D02*
X149860000Y-52705000D01*
X150368000Y-52324000D02*
X150368000Y-53086000D01*
D12*
%TO.C,REF\u002A\u002A*%
G36*
X153670000Y-48133000D02*
G01*
X151765000Y-48133000D01*
X151765000Y-49403000D01*
X153670000Y-49403000D01*
X153670000Y-48133000D01*
G37*
X153670000Y-48133000D02*
X151765000Y-48133000D01*
X151765000Y-49403000D01*
X153670000Y-49403000D01*
X153670000Y-48133000D01*
G36*
X153035000Y-49403000D02*
G01*
X153035000Y-50038000D01*
X152400000Y-50038000D01*
X152400000Y-49403000D01*
X153035000Y-49403000D01*
G37*
X153035000Y-49403000D02*
X153035000Y-50038000D01*
X152400000Y-50038000D01*
X152400000Y-49403000D01*
X153035000Y-49403000D01*
G36*
X153670000Y-50038000D02*
G01*
X154305000Y-50038000D01*
X154305000Y-50673000D01*
X153670000Y-50673000D01*
X153670000Y-50038000D01*
G37*
X153670000Y-50038000D02*
X154305000Y-50038000D01*
X154305000Y-50673000D01*
X153670000Y-50673000D01*
X153670000Y-50038000D01*
G36*
X154305000Y-50038000D02*
G01*
X154305000Y-48768000D01*
X154940000Y-48768000D01*
X154940000Y-50038000D01*
X154305000Y-50038000D01*
G37*
X154305000Y-50038000D02*
X154305000Y-48768000D01*
X154940000Y-48768000D01*
X154940000Y-50038000D01*
X154305000Y-50038000D01*
G36*
X153670000Y-50038000D02*
G01*
X151765000Y-50038000D01*
X151765000Y-50673000D01*
X153670000Y-50673000D01*
X153670000Y-50038000D01*
G37*
X153670000Y-50038000D02*
X151765000Y-50038000D01*
X151765000Y-50673000D01*
X153670000Y-50673000D01*
X153670000Y-50038000D01*
G36*
X151765000Y-50673000D02*
G01*
X151765000Y-51943000D01*
X151130000Y-51943000D01*
X151130000Y-50673000D01*
X151765000Y-50673000D01*
G37*
X151765000Y-50673000D02*
X151765000Y-51943000D01*
X151130000Y-51943000D01*
X151130000Y-50673000D01*
X151765000Y-50673000D01*
G36*
X152400000Y-50673000D02*
G01*
X152400000Y-51308000D01*
X153670000Y-51308000D01*
X153670000Y-50673000D01*
X152400000Y-50673000D01*
G37*
X152400000Y-50673000D02*
X152400000Y-51308000D01*
X153670000Y-51308000D01*
X153670000Y-50673000D01*
X152400000Y-50673000D01*
G36*
X152400000Y-51308000D02*
G01*
X152400000Y-52578000D01*
X153035000Y-52578000D01*
X153035000Y-51308000D01*
X152400000Y-51308000D01*
G37*
X152400000Y-51308000D02*
X152400000Y-52578000D01*
X153035000Y-52578000D01*
X153035000Y-51308000D01*
X152400000Y-51308000D01*
G36*
X152400000Y-51943000D02*
G01*
X151765000Y-51943000D01*
X151765000Y-53213000D01*
X152400000Y-53213000D01*
X152400000Y-51943000D01*
G37*
X152400000Y-51943000D02*
X151765000Y-51943000D01*
X151765000Y-53213000D01*
X152400000Y-53213000D01*
X152400000Y-51943000D01*
G36*
X153670000Y-51308000D02*
G01*
X153670000Y-51943000D01*
X154305000Y-51943000D01*
X154305000Y-51308000D01*
X153670000Y-51308000D01*
G37*
X153670000Y-51308000D02*
X153670000Y-51943000D01*
X154305000Y-51943000D01*
X154305000Y-51308000D01*
X153670000Y-51308000D01*
G36*
X153670000Y-51943000D02*
G01*
X153670000Y-52578000D01*
X154940000Y-52578000D01*
X154940000Y-51943000D01*
X153670000Y-51943000D01*
G37*
X153670000Y-51943000D02*
X153670000Y-52578000D01*
X154940000Y-52578000D01*
X154940000Y-51943000D01*
X153670000Y-51943000D01*
D11*
%TO.C,R19*%
X154343748Y-53945000D02*
X154866252Y-53945000D01*
X154343748Y-55365000D02*
X154866252Y-55365000D01*
%TO.C,D1*%
X148000000Y-53650000D02*
X150860000Y-53650000D01*
X148000000Y-55570000D02*
X148000000Y-53650000D01*
X150860000Y-55570000D02*
X148000000Y-55570000D01*
%TO.C,R15*%
X161088000Y-62110252D02*
X161088000Y-61587748D01*
X162508000Y-62110252D02*
X162508000Y-61587748D01*
%TO.C,R13*%
X158421000Y-62110252D02*
X158421000Y-61587748D01*
X159841000Y-62110252D02*
X159841000Y-61587748D01*
%TO.C,R12*%
X155627000Y-62246252D02*
X155627000Y-61723748D01*
X157047000Y-62246252D02*
X157047000Y-61723748D01*
%TO.C,R10*%
X152833000Y-62246252D02*
X152833000Y-61723748D01*
X154253000Y-62246252D02*
X154253000Y-61723748D01*
%TO.C,R9*%
X151459000Y-61714748D02*
X151459000Y-62237252D01*
X150039000Y-61714748D02*
X150039000Y-62237252D01*
%TO.C,R6*%
X145998000Y-61705748D02*
X145998000Y-62228252D01*
X144578000Y-61705748D02*
X144578000Y-62228252D01*
%TO.C,R3*%
X140791000Y-61705748D02*
X140791000Y-62228252D01*
X139371000Y-61705748D02*
X139371000Y-62228252D01*
%TO.C,R19*%
D10*
X155247857Y-56757380D02*
X155581190Y-56281190D01*
X155819285Y-56757380D02*
X155819285Y-55757380D01*
X155438333Y-55757380D01*
X155343095Y-55805000D01*
X155295476Y-55852619D01*
X155247857Y-55947857D01*
X155247857Y-56090714D01*
X155295476Y-56185952D01*
X155343095Y-56233571D01*
X155438333Y-56281190D01*
X155819285Y-56281190D01*
X154295476Y-56757380D02*
X154866904Y-56757380D01*
X154581190Y-56757380D02*
X154581190Y-55757380D01*
X154676428Y-55900238D01*
X154771666Y-55995476D01*
X154866904Y-56043095D01*
X153819285Y-56757380D02*
X153628809Y-56757380D01*
X153533571Y-56709761D01*
X153485952Y-56662142D01*
X153390714Y-56519285D01*
X153343095Y-56328809D01*
X153343095Y-55947857D01*
X153390714Y-55852619D01*
X153438333Y-55805000D01*
X153533571Y-55757380D01*
X153724047Y-55757380D01*
X153819285Y-55805000D01*
X153866904Y-55852619D01*
X153914523Y-55947857D01*
X153914523Y-56185952D01*
X153866904Y-56281190D01*
X153819285Y-56328809D01*
X153724047Y-56376428D01*
X153533571Y-56376428D01*
X153438333Y-56328809D01*
X153390714Y-56281190D01*
X153343095Y-56185952D01*
%TO.C,D1*%
X150598095Y-56712380D02*
X150598095Y-55712380D01*
X150360000Y-55712380D01*
X150217142Y-55760000D01*
X150121904Y-55855238D01*
X150074285Y-55950476D01*
X150026666Y-56140952D01*
X150026666Y-56283809D01*
X150074285Y-56474285D01*
X150121904Y-56569523D01*
X150217142Y-56664761D01*
X150360000Y-56712380D01*
X150598095Y-56712380D01*
X149074285Y-56712380D02*
X149645714Y-56712380D01*
X149360000Y-56712380D02*
X149360000Y-55712380D01*
X149455238Y-55855238D01*
X149550476Y-55950476D01*
X149645714Y-55998095D01*
%TO.C,R15*%
X160980380Y-61206142D02*
X160504190Y-60872809D01*
X160980380Y-60634714D02*
X159980380Y-60634714D01*
X159980380Y-61015666D01*
X160028000Y-61110904D01*
X160075619Y-61158523D01*
X160170857Y-61206142D01*
X160313714Y-61206142D01*
X160408952Y-61158523D01*
X160456571Y-61110904D01*
X160504190Y-61015666D01*
X160504190Y-60634714D01*
X160980380Y-62158523D02*
X160980380Y-61587095D01*
X160980380Y-61872809D02*
X159980380Y-61872809D01*
X160123238Y-61777571D01*
X160218476Y-61682333D01*
X160266095Y-61587095D01*
X159980380Y-63063285D02*
X159980380Y-62587095D01*
X160456571Y-62539476D01*
X160408952Y-62587095D01*
X160361333Y-62682333D01*
X160361333Y-62920428D01*
X160408952Y-63015666D01*
X160456571Y-63063285D01*
X160551809Y-63110904D01*
X160789904Y-63110904D01*
X160885142Y-63063285D01*
X160932761Y-63015666D01*
X160980380Y-62920428D01*
X160980380Y-62682333D01*
X160932761Y-62587095D01*
X160885142Y-62539476D01*
%TO.C,R13*%
X158313380Y-61206142D02*
X157837190Y-60872809D01*
X158313380Y-60634714D02*
X157313380Y-60634714D01*
X157313380Y-61015666D01*
X157361000Y-61110904D01*
X157408619Y-61158523D01*
X157503857Y-61206142D01*
X157646714Y-61206142D01*
X157741952Y-61158523D01*
X157789571Y-61110904D01*
X157837190Y-61015666D01*
X157837190Y-60634714D01*
X158313380Y-62158523D02*
X158313380Y-61587095D01*
X158313380Y-61872809D02*
X157313380Y-61872809D01*
X157456238Y-61777571D01*
X157551476Y-61682333D01*
X157599095Y-61587095D01*
X157313380Y-62491857D02*
X157313380Y-63110904D01*
X157694333Y-62777571D01*
X157694333Y-62920428D01*
X157741952Y-63015666D01*
X157789571Y-63063285D01*
X157884809Y-63110904D01*
X158122904Y-63110904D01*
X158218142Y-63063285D01*
X158265761Y-63015666D01*
X158313380Y-62920428D01*
X158313380Y-62634714D01*
X158265761Y-62539476D01*
X158218142Y-62491857D01*
%TO.C,R12*%
X155519380Y-61342142D02*
X155043190Y-61008809D01*
X155519380Y-60770714D02*
X154519380Y-60770714D01*
X154519380Y-61151666D01*
X154567000Y-61246904D01*
X154614619Y-61294523D01*
X154709857Y-61342142D01*
X154852714Y-61342142D01*
X154947952Y-61294523D01*
X154995571Y-61246904D01*
X155043190Y-61151666D01*
X155043190Y-60770714D01*
X155519380Y-62294523D02*
X155519380Y-61723095D01*
X155519380Y-62008809D02*
X154519380Y-62008809D01*
X154662238Y-61913571D01*
X154757476Y-61818333D01*
X154805095Y-61723095D01*
X154614619Y-62675476D02*
X154567000Y-62723095D01*
X154519380Y-62818333D01*
X154519380Y-63056428D01*
X154567000Y-63151666D01*
X154614619Y-63199285D01*
X154709857Y-63246904D01*
X154805095Y-63246904D01*
X154947952Y-63199285D01*
X155519380Y-62627857D01*
X155519380Y-63246904D01*
%TO.C,R10*%
X152598380Y-61333142D02*
X152122190Y-60999809D01*
X152598380Y-60761714D02*
X151598380Y-60761714D01*
X151598380Y-61142666D01*
X151646000Y-61237904D01*
X151693619Y-61285523D01*
X151788857Y-61333142D01*
X151931714Y-61333142D01*
X152026952Y-61285523D01*
X152074571Y-61237904D01*
X152122190Y-61142666D01*
X152122190Y-60761714D01*
X152598380Y-62285523D02*
X152598380Y-61714095D01*
X152598380Y-61999809D02*
X151598380Y-61999809D01*
X151741238Y-61904571D01*
X151836476Y-61809333D01*
X151884095Y-61714095D01*
X151598380Y-62904571D02*
X151598380Y-62999809D01*
X151646000Y-63095047D01*
X151693619Y-63142666D01*
X151788857Y-63190285D01*
X151979333Y-63237904D01*
X152217428Y-63237904D01*
X152407904Y-63190285D01*
X152503142Y-63142666D01*
X152550761Y-63095047D01*
X152598380Y-62999809D01*
X152598380Y-62904571D01*
X152550761Y-62809333D01*
X152503142Y-62761714D01*
X152407904Y-62714095D01*
X152217428Y-62666476D01*
X151979333Y-62666476D01*
X151788857Y-62714095D01*
X151693619Y-62761714D01*
X151646000Y-62809333D01*
X151598380Y-62904571D01*
%TO.C,R9*%
X149804380Y-61809333D02*
X149328190Y-61476000D01*
X149804380Y-61237904D02*
X148804380Y-61237904D01*
X148804380Y-61618857D01*
X148852000Y-61714095D01*
X148899619Y-61761714D01*
X148994857Y-61809333D01*
X149137714Y-61809333D01*
X149232952Y-61761714D01*
X149280571Y-61714095D01*
X149328190Y-61618857D01*
X149328190Y-61237904D01*
X149804380Y-62285523D02*
X149804380Y-62476000D01*
X149756761Y-62571238D01*
X149709142Y-62618857D01*
X149566285Y-62714095D01*
X149375809Y-62761714D01*
X148994857Y-62761714D01*
X148899619Y-62714095D01*
X148852000Y-62666476D01*
X148804380Y-62571238D01*
X148804380Y-62380761D01*
X148852000Y-62285523D01*
X148899619Y-62237904D01*
X148994857Y-62190285D01*
X149232952Y-62190285D01*
X149328190Y-62237904D01*
X149375809Y-62285523D01*
X149423428Y-62380761D01*
X149423428Y-62571238D01*
X149375809Y-62666476D01*
X149328190Y-62714095D01*
X149232952Y-62761714D01*
%TO.C,R6*%
X144343380Y-61682333D02*
X143867190Y-61349000D01*
X144343380Y-61110904D02*
X143343380Y-61110904D01*
X143343380Y-61491857D01*
X143391000Y-61587095D01*
X143438619Y-61634714D01*
X143533857Y-61682333D01*
X143676714Y-61682333D01*
X143771952Y-61634714D01*
X143819571Y-61587095D01*
X143867190Y-61491857D01*
X143867190Y-61110904D01*
X143343380Y-62539476D02*
X143343380Y-62349000D01*
X143391000Y-62253761D01*
X143438619Y-62206142D01*
X143581476Y-62110904D01*
X143771952Y-62063285D01*
X144152904Y-62063285D01*
X144248142Y-62110904D01*
X144295761Y-62158523D01*
X144343380Y-62253761D01*
X144343380Y-62444238D01*
X144295761Y-62539476D01*
X144248142Y-62587095D01*
X144152904Y-62634714D01*
X143914809Y-62634714D01*
X143819571Y-62587095D01*
X143771952Y-62539476D01*
X143724333Y-62444238D01*
X143724333Y-62253761D01*
X143771952Y-62158523D01*
X143819571Y-62110904D01*
X143914809Y-62063285D01*
%TO.C,R3*%
X142057380Y-61809333D02*
X141581190Y-61476000D01*
X142057380Y-61237904D02*
X141057380Y-61237904D01*
X141057380Y-61618857D01*
X141105000Y-61714095D01*
X141152619Y-61761714D01*
X141247857Y-61809333D01*
X141390714Y-61809333D01*
X141485952Y-61761714D01*
X141533571Y-61714095D01*
X141581190Y-61618857D01*
X141581190Y-61237904D01*
X141057380Y-62142666D02*
X141057380Y-62761714D01*
X141438333Y-62428380D01*
X141438333Y-62571238D01*
X141485952Y-62666476D01*
X141533571Y-62714095D01*
X141628809Y-62761714D01*
X141866904Y-62761714D01*
X141962142Y-62714095D01*
X142009761Y-62666476D01*
X142057380Y-62571238D01*
X142057380Y-62285523D01*
X142009761Y-62190285D01*
X141962142Y-62142666D01*
%TD*%
M02*
