%TF.GenerationSoftware,KiCad,Pcbnew,(5.1.6-0)*%
%TF.CreationDate,2021-12-12T18:28:57+01:00*%
%TF.ProjectId,ScsiTerm,53637369-5465-4726-9d2e-6b696361645f,rev?*%
%TF.SameCoordinates,Original*%
%TF.FileFunction,Soldermask,Top*%
%TF.FilePolarity,Negative*%
%FSLAX46Y46*%
G04 Gerber Fmt 4.6, Leading zero omitted, Abs format (unit mm)*
G04 Created by KiCad (PCBNEW (5.1.6-0)) date 2021-12-12 18:28:57*
%MOMM*%
%LPD*%
G01*
G04 APERTURE LIST*
%ADD10R,5.900000X6.500000*%
%ADD11R,1.300000X2.300000*%
%ADD12R,1.946667X3.580000*%
G04 APERTURE END LIST*
D10*
%TO.C,U1*%
X152147000Y-49843000D03*
D11*
X154427000Y-56143000D03*
X149867000Y-56143000D03*
%TD*%
%TO.C,R18*%
G36*
G01*
X161827738Y-57931000D02*
X162784262Y-57931000D01*
G75*
G02*
X163056000Y-58202738I0J-271738D01*
G01*
X163056000Y-58909262D01*
G75*
G02*
X162784262Y-59181000I-271738J0D01*
G01*
X161827738Y-59181000D01*
G75*
G02*
X161556000Y-58909262I0J271738D01*
G01*
X161556000Y-58202738D01*
G75*
G02*
X161827738Y-57931000I271738J0D01*
G01*
G37*
G36*
G01*
X161827738Y-55881000D02*
X162784262Y-55881000D01*
G75*
G02*
X163056000Y-56152738I0J-271738D01*
G01*
X163056000Y-56859262D01*
G75*
G02*
X162784262Y-57131000I-271738J0D01*
G01*
X161827738Y-57131000D01*
G75*
G02*
X161556000Y-56859262I0J271738D01*
G01*
X161556000Y-56152738D01*
G75*
G02*
X161827738Y-55881000I271738J0D01*
G01*
G37*
%TD*%
%TO.C,R17*%
G36*
G01*
X158906738Y-57922000D02*
X159863262Y-57922000D01*
G75*
G02*
X160135000Y-58193738I0J-271738D01*
G01*
X160135000Y-58900262D01*
G75*
G02*
X159863262Y-59172000I-271738J0D01*
G01*
X158906738Y-59172000D01*
G75*
G02*
X158635000Y-58900262I0J271738D01*
G01*
X158635000Y-58193738D01*
G75*
G02*
X158906738Y-57922000I271738J0D01*
G01*
G37*
G36*
G01*
X158906738Y-55872000D02*
X159863262Y-55872000D01*
G75*
G02*
X160135000Y-56143738I0J-271738D01*
G01*
X160135000Y-56850262D01*
G75*
G02*
X159863262Y-57122000I-271738J0D01*
G01*
X158906738Y-57122000D01*
G75*
G02*
X158635000Y-56850262I0J271738D01*
G01*
X158635000Y-56143738D01*
G75*
G02*
X158906738Y-55872000I271738J0D01*
G01*
G37*
%TD*%
%TO.C,R16*%
G36*
G01*
X163546262Y-61440000D02*
X162589738Y-61440000D01*
G75*
G02*
X162318000Y-61168262I0J271738D01*
G01*
X162318000Y-60461738D01*
G75*
G02*
X162589738Y-60190000I271738J0D01*
G01*
X163546262Y-60190000D01*
G75*
G02*
X163818000Y-60461738I0J-271738D01*
G01*
X163818000Y-61168262D01*
G75*
G02*
X163546262Y-61440000I-271738J0D01*
G01*
G37*
G36*
G01*
X163546262Y-63490000D02*
X162589738Y-63490000D01*
G75*
G02*
X162318000Y-63218262I0J271738D01*
G01*
X162318000Y-62511738D01*
G75*
G02*
X162589738Y-62240000I271738J0D01*
G01*
X163546262Y-62240000D01*
G75*
G02*
X163818000Y-62511738I0J-271738D01*
G01*
X163818000Y-63218262D01*
G75*
G02*
X163546262Y-63490000I-271738J0D01*
G01*
G37*
%TD*%
%TO.C,R14*%
G36*
G01*
X160625262Y-61458000D02*
X159668738Y-61458000D01*
G75*
G02*
X159397000Y-61186262I0J271738D01*
G01*
X159397000Y-60479738D01*
G75*
G02*
X159668738Y-60208000I271738J0D01*
G01*
X160625262Y-60208000D01*
G75*
G02*
X160897000Y-60479738I0J-271738D01*
G01*
X160897000Y-61186262D01*
G75*
G02*
X160625262Y-61458000I-271738J0D01*
G01*
G37*
G36*
G01*
X160625262Y-63508000D02*
X159668738Y-63508000D01*
G75*
G02*
X159397000Y-63236262I0J271738D01*
G01*
X159397000Y-62529738D01*
G75*
G02*
X159668738Y-62258000I271738J0D01*
G01*
X160625262Y-62258000D01*
G75*
G02*
X160897000Y-62529738I0J-271738D01*
G01*
X160897000Y-63236262D01*
G75*
G02*
X160625262Y-63508000I-271738J0D01*
G01*
G37*
%TD*%
%TO.C,R11*%
G36*
G01*
X155418262Y-61585000D02*
X154461738Y-61585000D01*
G75*
G02*
X154190000Y-61313262I0J271738D01*
G01*
X154190000Y-60606738D01*
G75*
G02*
X154461738Y-60335000I271738J0D01*
G01*
X155418262Y-60335000D01*
G75*
G02*
X155690000Y-60606738I0J-271738D01*
G01*
X155690000Y-61313262D01*
G75*
G02*
X155418262Y-61585000I-271738J0D01*
G01*
G37*
G36*
G01*
X155418262Y-63635000D02*
X154461738Y-63635000D01*
G75*
G02*
X154190000Y-63363262I0J271738D01*
G01*
X154190000Y-62656738D01*
G75*
G02*
X154461738Y-62385000I271738J0D01*
G01*
X155418262Y-62385000D01*
G75*
G02*
X155690000Y-62656738I0J-271738D01*
G01*
X155690000Y-63363262D01*
G75*
G02*
X155418262Y-63635000I-271738J0D01*
G01*
G37*
%TD*%
%TO.C,R8*%
G36*
G01*
X148937238Y-62321500D02*
X149893762Y-62321500D01*
G75*
G02*
X150165500Y-62593238I0J-271738D01*
G01*
X150165500Y-63299762D01*
G75*
G02*
X149893762Y-63571500I-271738J0D01*
G01*
X148937238Y-63571500D01*
G75*
G02*
X148665500Y-63299762I0J271738D01*
G01*
X148665500Y-62593238D01*
G75*
G02*
X148937238Y-62321500I271738J0D01*
G01*
G37*
G36*
G01*
X148937238Y-60271500D02*
X149893762Y-60271500D01*
G75*
G02*
X150165500Y-60543238I0J-271738D01*
G01*
X150165500Y-61249762D01*
G75*
G02*
X149893762Y-61521500I-271738J0D01*
G01*
X148937238Y-61521500D01*
G75*
G02*
X148665500Y-61249762I0J271738D01*
G01*
X148665500Y-60543238D01*
G75*
G02*
X148937238Y-60271500I271738J0D01*
G01*
G37*
%TD*%
%TO.C,R7*%
G36*
G01*
X146206738Y-62385000D02*
X147163262Y-62385000D01*
G75*
G02*
X147435000Y-62656738I0J-271738D01*
G01*
X147435000Y-63363262D01*
G75*
G02*
X147163262Y-63635000I-271738J0D01*
G01*
X146206738Y-63635000D01*
G75*
G02*
X145935000Y-63363262I0J271738D01*
G01*
X145935000Y-62656738D01*
G75*
G02*
X146206738Y-62385000I271738J0D01*
G01*
G37*
G36*
G01*
X146206738Y-60335000D02*
X147163262Y-60335000D01*
G75*
G02*
X147435000Y-60606738I0J-271738D01*
G01*
X147435000Y-61313262D01*
G75*
G02*
X147163262Y-61585000I-271738J0D01*
G01*
X146206738Y-61585000D01*
G75*
G02*
X145935000Y-61313262I0J271738D01*
G01*
X145935000Y-60606738D01*
G75*
G02*
X146206738Y-60335000I271738J0D01*
G01*
G37*
%TD*%
%TO.C,R5*%
G36*
G01*
X143412738Y-62376000D02*
X144369262Y-62376000D01*
G75*
G02*
X144641000Y-62647738I0J-271738D01*
G01*
X144641000Y-63354262D01*
G75*
G02*
X144369262Y-63626000I-271738J0D01*
G01*
X143412738Y-63626000D01*
G75*
G02*
X143141000Y-63354262I0J271738D01*
G01*
X143141000Y-62647738D01*
G75*
G02*
X143412738Y-62376000I271738J0D01*
G01*
G37*
G36*
G01*
X143412738Y-60326000D02*
X144369262Y-60326000D01*
G75*
G02*
X144641000Y-60597738I0J-271738D01*
G01*
X144641000Y-61304262D01*
G75*
G02*
X144369262Y-61576000I-271738J0D01*
G01*
X143412738Y-61576000D01*
G75*
G02*
X143141000Y-61304262I0J271738D01*
G01*
X143141000Y-60597738D01*
G75*
G02*
X143412738Y-60326000I271738J0D01*
G01*
G37*
%TD*%
%TO.C,R4*%
G36*
G01*
X140618738Y-62367000D02*
X141575262Y-62367000D01*
G75*
G02*
X141847000Y-62638738I0J-271738D01*
G01*
X141847000Y-63345262D01*
G75*
G02*
X141575262Y-63617000I-271738J0D01*
G01*
X140618738Y-63617000D01*
G75*
G02*
X140347000Y-63345262I0J271738D01*
G01*
X140347000Y-62638738D01*
G75*
G02*
X140618738Y-62367000I271738J0D01*
G01*
G37*
G36*
G01*
X140618738Y-60317000D02*
X141575262Y-60317000D01*
G75*
G02*
X141847000Y-60588738I0J-271738D01*
G01*
X141847000Y-61295262D01*
G75*
G02*
X141575262Y-61567000I-271738J0D01*
G01*
X140618738Y-61567000D01*
G75*
G02*
X140347000Y-61295262I0J271738D01*
G01*
X140347000Y-60588738D01*
G75*
G02*
X140618738Y-60317000I271738J0D01*
G01*
G37*
%TD*%
%TO.C,R2*%
G36*
G01*
X145385262Y-57122000D02*
X144428738Y-57122000D01*
G75*
G02*
X144157000Y-56850262I0J271738D01*
G01*
X144157000Y-56143738D01*
G75*
G02*
X144428738Y-55872000I271738J0D01*
G01*
X145385262Y-55872000D01*
G75*
G02*
X145657000Y-56143738I0J-271738D01*
G01*
X145657000Y-56850262D01*
G75*
G02*
X145385262Y-57122000I-271738J0D01*
G01*
G37*
G36*
G01*
X145385262Y-59172000D02*
X144428738Y-59172000D01*
G75*
G02*
X144157000Y-58900262I0J271738D01*
G01*
X144157000Y-58193738D01*
G75*
G02*
X144428738Y-57922000I271738J0D01*
G01*
X145385262Y-57922000D01*
G75*
G02*
X145657000Y-58193738I0J-271738D01*
G01*
X145657000Y-58900262D01*
G75*
G02*
X145385262Y-59172000I-271738J0D01*
G01*
G37*
%TD*%
%TO.C,R1*%
G36*
G01*
X142591262Y-57131000D02*
X141634738Y-57131000D01*
G75*
G02*
X141363000Y-56859262I0J271738D01*
G01*
X141363000Y-56152738D01*
G75*
G02*
X141634738Y-55881000I271738J0D01*
G01*
X142591262Y-55881000D01*
G75*
G02*
X142863000Y-56152738I0J-271738D01*
G01*
X142863000Y-56859262D01*
G75*
G02*
X142591262Y-57131000I-271738J0D01*
G01*
G37*
G36*
G01*
X142591262Y-59181000D02*
X141634738Y-59181000D01*
G75*
G02*
X141363000Y-58909262I0J271738D01*
G01*
X141363000Y-58202738D01*
G75*
G02*
X141634738Y-57931000I271738J0D01*
G01*
X142591262Y-57931000D01*
G75*
G02*
X142863000Y-58202738I0J-271738D01*
G01*
X142863000Y-58909262D01*
G75*
G02*
X142591262Y-59181000I-271738J0D01*
G01*
G37*
%TD*%
D12*
%TO.C,J1*%
X168788000Y-67365000D03*
X166018000Y-67365000D03*
X163248000Y-67365000D03*
X160478000Y-67365000D03*
X157708000Y-67365000D03*
X154938000Y-67365000D03*
X152168000Y-67365000D03*
X149398000Y-67365000D03*
X146628000Y-67365000D03*
X143858000Y-67365000D03*
X141088000Y-67365000D03*
X138318000Y-67365000D03*
X135548000Y-67365000D03*
%TD*%
%TO.C,C2*%
G36*
G01*
X145298000Y-53310262D02*
X145298000Y-52353738D01*
G75*
G02*
X145569738Y-52082000I271738J0D01*
G01*
X146276262Y-52082000D01*
G75*
G02*
X146548000Y-52353738I0J-271738D01*
G01*
X146548000Y-53310262D01*
G75*
G02*
X146276262Y-53582000I-271738J0D01*
G01*
X145569738Y-53582000D01*
G75*
G02*
X145298000Y-53310262I0J271738D01*
G01*
G37*
G36*
G01*
X143248000Y-53310262D02*
X143248000Y-52353738D01*
G75*
G02*
X143519738Y-52082000I271738J0D01*
G01*
X144226262Y-52082000D01*
G75*
G02*
X144498000Y-52353738I0J-271738D01*
G01*
X144498000Y-53310262D01*
G75*
G02*
X144226262Y-53582000I-271738J0D01*
G01*
X143519738Y-53582000D01*
G75*
G02*
X143248000Y-53310262I0J271738D01*
G01*
G37*
%TD*%
%TO.C,C1*%
G36*
G01*
X159540000Y-53310262D02*
X159540000Y-52353738D01*
G75*
G02*
X159811738Y-52082000I271738J0D01*
G01*
X160518262Y-52082000D01*
G75*
G02*
X160790000Y-52353738I0J-271738D01*
G01*
X160790000Y-53310262D01*
G75*
G02*
X160518262Y-53582000I-271738J0D01*
G01*
X159811738Y-53582000D01*
G75*
G02*
X159540000Y-53310262I0J271738D01*
G01*
G37*
G36*
G01*
X157490000Y-53310262D02*
X157490000Y-52353738D01*
G75*
G02*
X157761738Y-52082000I271738J0D01*
G01*
X158468262Y-52082000D01*
G75*
G02*
X158740000Y-52353738I0J-271738D01*
G01*
X158740000Y-53310262D01*
G75*
G02*
X158468262Y-53582000I-271738J0D01*
G01*
X157761738Y-53582000D01*
G75*
G02*
X157490000Y-53310262I0J271738D01*
G01*
G37*
%TD*%
M02*
