%TF.GenerationSoftware,KiCad,Pcbnew,(5.1.6-0)*%
%TF.CreationDate,2021-12-12T18:28:57+01:00*%
%TF.ProjectId,ScsiTerm,53637369-5465-4726-9d2e-6b696361645f,rev?*%
%TF.SameCoordinates,Original*%
%TF.FileFunction,Soldermask,Bot*%
%TF.FilePolarity,Negative*%
%FSLAX46Y46*%
G04 Gerber Fmt 4.6, Leading zero omitted, Abs format (unit mm)*
G04 Created by KiCad (PCBNEW (5.1.6-0)) date 2021-12-12 18:28:57*
%MOMM*%
%LPD*%
G01*
G04 APERTURE LIST*
%ADD10R,1.946667X3.580000*%
G04 APERTURE END LIST*
%TO.C,R19*%
G36*
G01*
X155005000Y-55133262D02*
X155005000Y-54176738D01*
G75*
G02*
X155276738Y-53905000I271738J0D01*
G01*
X155983262Y-53905000D01*
G75*
G02*
X156255000Y-54176738I0J-271738D01*
G01*
X156255000Y-55133262D01*
G75*
G02*
X155983262Y-55405000I-271738J0D01*
G01*
X155276738Y-55405000D01*
G75*
G02*
X155005000Y-55133262I0J271738D01*
G01*
G37*
G36*
G01*
X152955000Y-55133262D02*
X152955000Y-54176738D01*
G75*
G02*
X153226738Y-53905000I271738J0D01*
G01*
X153933262Y-53905000D01*
G75*
G02*
X154205000Y-54176738I0J-271738D01*
G01*
X154205000Y-55133262D01*
G75*
G02*
X153933262Y-55405000I-271738J0D01*
G01*
X153226738Y-55405000D01*
G75*
G02*
X152955000Y-55133262I0J271738D01*
G01*
G37*
%TD*%
%TO.C,D1*%
G36*
G01*
X150260000Y-55088262D02*
X150260000Y-54131738D01*
G75*
G02*
X150531738Y-53860000I271738J0D01*
G01*
X151238262Y-53860000D01*
G75*
G02*
X151510000Y-54131738I0J-271738D01*
G01*
X151510000Y-55088262D01*
G75*
G02*
X151238262Y-55360000I-271738J0D01*
G01*
X150531738Y-55360000D01*
G75*
G02*
X150260000Y-55088262I0J271738D01*
G01*
G37*
G36*
G01*
X148210000Y-55088262D02*
X148210000Y-54131738D01*
G75*
G02*
X148481738Y-53860000I271738J0D01*
G01*
X149188262Y-53860000D01*
G75*
G02*
X149460000Y-54131738I0J-271738D01*
G01*
X149460000Y-55088262D01*
G75*
G02*
X149188262Y-55360000I-271738J0D01*
G01*
X148481738Y-55360000D01*
G75*
G02*
X148210000Y-55088262I0J271738D01*
G01*
G37*
%TD*%
%TO.C,R15*%
G36*
G01*
X162276262Y-61449000D02*
X161319738Y-61449000D01*
G75*
G02*
X161048000Y-61177262I0J271738D01*
G01*
X161048000Y-60470738D01*
G75*
G02*
X161319738Y-60199000I271738J0D01*
G01*
X162276262Y-60199000D01*
G75*
G02*
X162548000Y-60470738I0J-271738D01*
G01*
X162548000Y-61177262D01*
G75*
G02*
X162276262Y-61449000I-271738J0D01*
G01*
G37*
G36*
G01*
X162276262Y-63499000D02*
X161319738Y-63499000D01*
G75*
G02*
X161048000Y-63227262I0J271738D01*
G01*
X161048000Y-62520738D01*
G75*
G02*
X161319738Y-62249000I271738J0D01*
G01*
X162276262Y-62249000D01*
G75*
G02*
X162548000Y-62520738I0J-271738D01*
G01*
X162548000Y-63227262D01*
G75*
G02*
X162276262Y-63499000I-271738J0D01*
G01*
G37*
%TD*%
%TO.C,R13*%
G36*
G01*
X159609262Y-61449000D02*
X158652738Y-61449000D01*
G75*
G02*
X158381000Y-61177262I0J271738D01*
G01*
X158381000Y-60470738D01*
G75*
G02*
X158652738Y-60199000I271738J0D01*
G01*
X159609262Y-60199000D01*
G75*
G02*
X159881000Y-60470738I0J-271738D01*
G01*
X159881000Y-61177262D01*
G75*
G02*
X159609262Y-61449000I-271738J0D01*
G01*
G37*
G36*
G01*
X159609262Y-63499000D02*
X158652738Y-63499000D01*
G75*
G02*
X158381000Y-63227262I0J271738D01*
G01*
X158381000Y-62520738D01*
G75*
G02*
X158652738Y-62249000I271738J0D01*
G01*
X159609262Y-62249000D01*
G75*
G02*
X159881000Y-62520738I0J-271738D01*
G01*
X159881000Y-63227262D01*
G75*
G02*
X159609262Y-63499000I-271738J0D01*
G01*
G37*
%TD*%
%TO.C,R12*%
G36*
G01*
X156815262Y-61585000D02*
X155858738Y-61585000D01*
G75*
G02*
X155587000Y-61313262I0J271738D01*
G01*
X155587000Y-60606738D01*
G75*
G02*
X155858738Y-60335000I271738J0D01*
G01*
X156815262Y-60335000D01*
G75*
G02*
X157087000Y-60606738I0J-271738D01*
G01*
X157087000Y-61313262D01*
G75*
G02*
X156815262Y-61585000I-271738J0D01*
G01*
G37*
G36*
G01*
X156815262Y-63635000D02*
X155858738Y-63635000D01*
G75*
G02*
X155587000Y-63363262I0J271738D01*
G01*
X155587000Y-62656738D01*
G75*
G02*
X155858738Y-62385000I271738J0D01*
G01*
X156815262Y-62385000D01*
G75*
G02*
X157087000Y-62656738I0J-271738D01*
G01*
X157087000Y-63363262D01*
G75*
G02*
X156815262Y-63635000I-271738J0D01*
G01*
G37*
%TD*%
%TO.C,R10*%
G36*
G01*
X154021262Y-61585000D02*
X153064738Y-61585000D01*
G75*
G02*
X152793000Y-61313262I0J271738D01*
G01*
X152793000Y-60606738D01*
G75*
G02*
X153064738Y-60335000I271738J0D01*
G01*
X154021262Y-60335000D01*
G75*
G02*
X154293000Y-60606738I0J-271738D01*
G01*
X154293000Y-61313262D01*
G75*
G02*
X154021262Y-61585000I-271738J0D01*
G01*
G37*
G36*
G01*
X154021262Y-63635000D02*
X153064738Y-63635000D01*
G75*
G02*
X152793000Y-63363262I0J271738D01*
G01*
X152793000Y-62656738D01*
G75*
G02*
X153064738Y-62385000I271738J0D01*
G01*
X154021262Y-62385000D01*
G75*
G02*
X154293000Y-62656738I0J-271738D01*
G01*
X154293000Y-63363262D01*
G75*
G02*
X154021262Y-63635000I-271738J0D01*
G01*
G37*
%TD*%
%TO.C,R9*%
G36*
G01*
X150270738Y-62376000D02*
X151227262Y-62376000D01*
G75*
G02*
X151499000Y-62647738I0J-271738D01*
G01*
X151499000Y-63354262D01*
G75*
G02*
X151227262Y-63626000I-271738J0D01*
G01*
X150270738Y-63626000D01*
G75*
G02*
X149999000Y-63354262I0J271738D01*
G01*
X149999000Y-62647738D01*
G75*
G02*
X150270738Y-62376000I271738J0D01*
G01*
G37*
G36*
G01*
X150270738Y-60326000D02*
X151227262Y-60326000D01*
G75*
G02*
X151499000Y-60597738I0J-271738D01*
G01*
X151499000Y-61304262D01*
G75*
G02*
X151227262Y-61576000I-271738J0D01*
G01*
X150270738Y-61576000D01*
G75*
G02*
X149999000Y-61304262I0J271738D01*
G01*
X149999000Y-60597738D01*
G75*
G02*
X150270738Y-60326000I271738J0D01*
G01*
G37*
%TD*%
%TO.C,R6*%
G36*
G01*
X144809738Y-62367000D02*
X145766262Y-62367000D01*
G75*
G02*
X146038000Y-62638738I0J-271738D01*
G01*
X146038000Y-63345262D01*
G75*
G02*
X145766262Y-63617000I-271738J0D01*
G01*
X144809738Y-63617000D01*
G75*
G02*
X144538000Y-63345262I0J271738D01*
G01*
X144538000Y-62638738D01*
G75*
G02*
X144809738Y-62367000I271738J0D01*
G01*
G37*
G36*
G01*
X144809738Y-60317000D02*
X145766262Y-60317000D01*
G75*
G02*
X146038000Y-60588738I0J-271738D01*
G01*
X146038000Y-61295262D01*
G75*
G02*
X145766262Y-61567000I-271738J0D01*
G01*
X144809738Y-61567000D01*
G75*
G02*
X144538000Y-61295262I0J271738D01*
G01*
X144538000Y-60588738D01*
G75*
G02*
X144809738Y-60317000I271738J0D01*
G01*
G37*
%TD*%
%TO.C,R3*%
G36*
G01*
X139602738Y-62367000D02*
X140559262Y-62367000D01*
G75*
G02*
X140831000Y-62638738I0J-271738D01*
G01*
X140831000Y-63345262D01*
G75*
G02*
X140559262Y-63617000I-271738J0D01*
G01*
X139602738Y-63617000D01*
G75*
G02*
X139331000Y-63345262I0J271738D01*
G01*
X139331000Y-62638738D01*
G75*
G02*
X139602738Y-62367000I271738J0D01*
G01*
G37*
G36*
G01*
X139602738Y-60317000D02*
X140559262Y-60317000D01*
G75*
G02*
X140831000Y-60588738I0J-271738D01*
G01*
X140831000Y-61295262D01*
G75*
G02*
X140559262Y-61567000I-271738J0D01*
G01*
X139602738Y-61567000D01*
G75*
G02*
X139331000Y-61295262I0J271738D01*
G01*
X139331000Y-60588738D01*
G75*
G02*
X139602738Y-60317000I271738J0D01*
G01*
G37*
%TD*%
D10*
%TO.C,J1*%
X167403000Y-67365000D03*
X164633000Y-67365000D03*
X161863000Y-67365000D03*
X159093000Y-67365000D03*
X156323000Y-67365000D03*
X153553000Y-67365000D03*
X150783000Y-67365000D03*
X148013000Y-67365000D03*
X145243000Y-67365000D03*
X142473000Y-67365000D03*
X139703000Y-67365000D03*
X136933000Y-67365000D03*
%TD*%
M02*
