%TF.GenerationSoftware,KiCad,Pcbnew,(5.1.6-0)*%
%TF.CreationDate,2022-09-04T14:31:22+02:00*%
%TF.ProjectId,ScsiTerm,53637369-5465-4726-9d2e-6b696361645f,rev?*%
%TF.SameCoordinates,Original*%
%TF.FileFunction,Legend,Top*%
%TF.FilePolarity,Positive*%
%FSLAX46Y46*%
G04 Gerber Fmt 4.6, Leading zero omitted, Abs format (unit mm)*
G04 Created by KiCad (PCBNEW (5.1.6-0)) date 2022-09-04 14:31:22*
%MOMM*%
%LPD*%
G01*
G04 APERTURE LIST*
%ADD10C,0.120000*%
%ADD11C,0.150000*%
G04 APERTURE END LIST*
D10*
%TO.C,U1*%
X148840000Y-54400000D02*
X148840000Y-48390000D01*
X155660000Y-52150000D02*
X155660000Y-48390000D01*
X148840000Y-48390000D02*
X150100000Y-48390000D01*
X155660000Y-48390000D02*
X154400000Y-48390000D01*
%TO.C,R21*%
X150713748Y-56710000D02*
X151236252Y-56710000D01*
X150713748Y-55290000D02*
X151236252Y-55290000D01*
%TO.C,R20*%
X147190000Y-56663748D02*
X147190000Y-57186252D01*
X148610000Y-56663748D02*
X148610000Y-57186252D01*
%TO.C,C3*%
X150713748Y-59010000D02*
X151236252Y-59010000D01*
X150713748Y-57590000D02*
X151236252Y-57590000D01*
%TO.C,R18*%
X161596000Y-57269748D02*
X161596000Y-57792252D01*
X163016000Y-57269748D02*
X163016000Y-57792252D01*
%TO.C,R17*%
X158675000Y-57260748D02*
X158675000Y-57783252D01*
X160095000Y-57260748D02*
X160095000Y-57783252D01*
%TO.C,R16*%
X163778000Y-62101252D02*
X163778000Y-61578748D01*
X162358000Y-62101252D02*
X162358000Y-61578748D01*
%TO.C,R14*%
X160857000Y-62119252D02*
X160857000Y-61596748D01*
X159437000Y-62119252D02*
X159437000Y-61596748D01*
%TO.C,R11*%
X155650000Y-62246252D02*
X155650000Y-61723748D01*
X154230000Y-62246252D02*
X154230000Y-61723748D01*
%TO.C,R8*%
X148705500Y-61660248D02*
X148705500Y-62182752D01*
X150125500Y-61660248D02*
X150125500Y-62182752D01*
%TO.C,R7*%
X145975000Y-61723748D02*
X145975000Y-62246252D01*
X147395000Y-61723748D02*
X147395000Y-62246252D01*
%TO.C,R5*%
X143181000Y-61714748D02*
X143181000Y-62237252D01*
X144601000Y-61714748D02*
X144601000Y-62237252D01*
%TO.C,R4*%
X140387000Y-61705748D02*
X140387000Y-62228252D01*
X141807000Y-61705748D02*
X141807000Y-62228252D01*
%TO.C,R2*%
X145617000Y-57783252D02*
X145617000Y-57260748D01*
X144197000Y-57783252D02*
X144197000Y-57260748D01*
%TO.C,R1*%
X142823000Y-57792252D02*
X142823000Y-57269748D01*
X141403000Y-57792252D02*
X141403000Y-57269748D01*
%TO.C,J1*%
X134124667Y-65125000D02*
X138318000Y-65125000D01*
X134124667Y-67365000D02*
X134124667Y-65125000D01*
X134364667Y-65365000D02*
X134364667Y-69105000D01*
X169971333Y-65365000D02*
X134364667Y-65365000D01*
X169971333Y-69105000D02*
X169971333Y-65365000D01*
%TO.C,C2*%
X144636748Y-53542000D02*
X145159252Y-53542000D01*
X144636748Y-52122000D02*
X145159252Y-52122000D01*
%TO.C,C1*%
X158878748Y-53542000D02*
X159401252Y-53542000D01*
X158878748Y-52122000D02*
X159401252Y-52122000D01*
%TO.C,U1*%
D11*
X148588095Y-46802380D02*
X148588095Y-47611904D01*
X148635714Y-47707142D01*
X148683333Y-47754761D01*
X148778571Y-47802380D01*
X148969047Y-47802380D01*
X149064285Y-47754761D01*
X149111904Y-47707142D01*
X149159523Y-47611904D01*
X149159523Y-46802380D01*
X150159523Y-47802380D02*
X149588095Y-47802380D01*
X149873809Y-47802380D02*
X149873809Y-46802380D01*
X149778571Y-46945238D01*
X149683333Y-47040476D01*
X149588095Y-47088095D01*
%TO.C,R21*%
X153607142Y-56502380D02*
X153273809Y-56026190D01*
X153035714Y-56502380D02*
X153035714Y-55502380D01*
X153416666Y-55502380D01*
X153511904Y-55550000D01*
X153559523Y-55597619D01*
X153607142Y-55692857D01*
X153607142Y-55835714D01*
X153559523Y-55930952D01*
X153511904Y-55978571D01*
X153416666Y-56026190D01*
X153035714Y-56026190D01*
X153988095Y-55597619D02*
X154035714Y-55550000D01*
X154130952Y-55502380D01*
X154369047Y-55502380D01*
X154464285Y-55550000D01*
X154511904Y-55597619D01*
X154559523Y-55692857D01*
X154559523Y-55788095D01*
X154511904Y-55930952D01*
X153940476Y-56502380D01*
X154559523Y-56502380D01*
X155511904Y-56502380D02*
X154940476Y-56502380D01*
X155226190Y-56502380D02*
X155226190Y-55502380D01*
X155130952Y-55645238D01*
X155035714Y-55740476D01*
X154940476Y-55788095D01*
%TO.C,R20*%
X148402380Y-54342857D02*
X147926190Y-54676190D01*
X148402380Y-54914285D02*
X147402380Y-54914285D01*
X147402380Y-54533333D01*
X147450000Y-54438095D01*
X147497619Y-54390476D01*
X147592857Y-54342857D01*
X147735714Y-54342857D01*
X147830952Y-54390476D01*
X147878571Y-54438095D01*
X147926190Y-54533333D01*
X147926190Y-54914285D01*
X147497619Y-53961904D02*
X147450000Y-53914285D01*
X147402380Y-53819047D01*
X147402380Y-53580952D01*
X147450000Y-53485714D01*
X147497619Y-53438095D01*
X147592857Y-53390476D01*
X147688095Y-53390476D01*
X147830952Y-53438095D01*
X148402380Y-54009523D01*
X148402380Y-53390476D01*
X147402380Y-52771428D02*
X147402380Y-52676190D01*
X147450000Y-52580952D01*
X147497619Y-52533333D01*
X147592857Y-52485714D01*
X147783333Y-52438095D01*
X148021428Y-52438095D01*
X148211904Y-52485714D01*
X148307142Y-52533333D01*
X148354761Y-52580952D01*
X148402380Y-52676190D01*
X148402380Y-52771428D01*
X148354761Y-52866666D01*
X148307142Y-52914285D01*
X148211904Y-52961904D01*
X148021428Y-53009523D01*
X147783333Y-53009523D01*
X147592857Y-52961904D01*
X147497619Y-52914285D01*
X147450000Y-52866666D01*
X147402380Y-52771428D01*
%TO.C,C3*%
X153583333Y-58657142D02*
X153535714Y-58704761D01*
X153392857Y-58752380D01*
X153297619Y-58752380D01*
X153154761Y-58704761D01*
X153059523Y-58609523D01*
X153011904Y-58514285D01*
X152964285Y-58323809D01*
X152964285Y-58180952D01*
X153011904Y-57990476D01*
X153059523Y-57895238D01*
X153154761Y-57800000D01*
X153297619Y-57752380D01*
X153392857Y-57752380D01*
X153535714Y-57800000D01*
X153583333Y-57847619D01*
X153916666Y-57752380D02*
X154535714Y-57752380D01*
X154202380Y-58133333D01*
X154345238Y-58133333D01*
X154440476Y-58180952D01*
X154488095Y-58228571D01*
X154535714Y-58323809D01*
X154535714Y-58561904D01*
X154488095Y-58657142D01*
X154440476Y-58704761D01*
X154345238Y-58752380D01*
X154059523Y-58752380D01*
X153964285Y-58704761D01*
X153916666Y-58657142D01*
%TO.C,R18*%
X161361380Y-58173857D02*
X160885190Y-58507190D01*
X161361380Y-58745285D02*
X160361380Y-58745285D01*
X160361380Y-58364333D01*
X160409000Y-58269095D01*
X160456619Y-58221476D01*
X160551857Y-58173857D01*
X160694714Y-58173857D01*
X160789952Y-58221476D01*
X160837571Y-58269095D01*
X160885190Y-58364333D01*
X160885190Y-58745285D01*
X161361380Y-57221476D02*
X161361380Y-57792904D01*
X161361380Y-57507190D02*
X160361380Y-57507190D01*
X160504238Y-57602428D01*
X160599476Y-57697666D01*
X160647095Y-57792904D01*
X160789952Y-56650047D02*
X160742333Y-56745285D01*
X160694714Y-56792904D01*
X160599476Y-56840523D01*
X160551857Y-56840523D01*
X160456619Y-56792904D01*
X160409000Y-56745285D01*
X160361380Y-56650047D01*
X160361380Y-56459571D01*
X160409000Y-56364333D01*
X160456619Y-56316714D01*
X160551857Y-56269095D01*
X160599476Y-56269095D01*
X160694714Y-56316714D01*
X160742333Y-56364333D01*
X160789952Y-56459571D01*
X160789952Y-56650047D01*
X160837571Y-56745285D01*
X160885190Y-56792904D01*
X160980428Y-56840523D01*
X161170904Y-56840523D01*
X161266142Y-56792904D01*
X161313761Y-56745285D01*
X161361380Y-56650047D01*
X161361380Y-56459571D01*
X161313761Y-56364333D01*
X161266142Y-56316714D01*
X161170904Y-56269095D01*
X160980428Y-56269095D01*
X160885190Y-56316714D01*
X160837571Y-56364333D01*
X160789952Y-56459571D01*
%TO.C,R17*%
X158313380Y-58164857D02*
X157837190Y-58498190D01*
X158313380Y-58736285D02*
X157313380Y-58736285D01*
X157313380Y-58355333D01*
X157361000Y-58260095D01*
X157408619Y-58212476D01*
X157503857Y-58164857D01*
X157646714Y-58164857D01*
X157741952Y-58212476D01*
X157789571Y-58260095D01*
X157837190Y-58355333D01*
X157837190Y-58736285D01*
X158313380Y-57212476D02*
X158313380Y-57783904D01*
X158313380Y-57498190D02*
X157313380Y-57498190D01*
X157456238Y-57593428D01*
X157551476Y-57688666D01*
X157599095Y-57783904D01*
X157313380Y-56879142D02*
X157313380Y-56212476D01*
X158313380Y-56641047D01*
%TO.C,R16*%
X162123380Y-62482857D02*
X161647190Y-62816190D01*
X162123380Y-63054285D02*
X161123380Y-63054285D01*
X161123380Y-62673333D01*
X161171000Y-62578095D01*
X161218619Y-62530476D01*
X161313857Y-62482857D01*
X161456714Y-62482857D01*
X161551952Y-62530476D01*
X161599571Y-62578095D01*
X161647190Y-62673333D01*
X161647190Y-63054285D01*
X162123380Y-61530476D02*
X162123380Y-62101904D01*
X162123380Y-61816190D02*
X161123380Y-61816190D01*
X161266238Y-61911428D01*
X161361476Y-62006666D01*
X161409095Y-62101904D01*
X161123380Y-60673333D02*
X161123380Y-60863809D01*
X161171000Y-60959047D01*
X161218619Y-61006666D01*
X161361476Y-61101904D01*
X161551952Y-61149523D01*
X161932904Y-61149523D01*
X162028142Y-61101904D01*
X162075761Y-61054285D01*
X162123380Y-60959047D01*
X162123380Y-60768571D01*
X162075761Y-60673333D01*
X162028142Y-60625714D01*
X161932904Y-60578095D01*
X161694809Y-60578095D01*
X161599571Y-60625714D01*
X161551952Y-60673333D01*
X161504333Y-60768571D01*
X161504333Y-60959047D01*
X161551952Y-61054285D01*
X161599571Y-61101904D01*
X161694809Y-61149523D01*
%TO.C,R14*%
X159075380Y-62500857D02*
X158599190Y-62834190D01*
X159075380Y-63072285D02*
X158075380Y-63072285D01*
X158075380Y-62691333D01*
X158123000Y-62596095D01*
X158170619Y-62548476D01*
X158265857Y-62500857D01*
X158408714Y-62500857D01*
X158503952Y-62548476D01*
X158551571Y-62596095D01*
X158599190Y-62691333D01*
X158599190Y-63072285D01*
X159075380Y-61548476D02*
X159075380Y-62119904D01*
X159075380Y-61834190D02*
X158075380Y-61834190D01*
X158218238Y-61929428D01*
X158313476Y-62024666D01*
X158361095Y-62119904D01*
X158408714Y-60691333D02*
X159075380Y-60691333D01*
X158027761Y-60929428D02*
X158742047Y-61167523D01*
X158742047Y-60548476D01*
%TO.C,R11*%
X153995380Y-62627857D02*
X153519190Y-62961190D01*
X153995380Y-63199285D02*
X152995380Y-63199285D01*
X152995380Y-62818333D01*
X153043000Y-62723095D01*
X153090619Y-62675476D01*
X153185857Y-62627857D01*
X153328714Y-62627857D01*
X153423952Y-62675476D01*
X153471571Y-62723095D01*
X153519190Y-62818333D01*
X153519190Y-63199285D01*
X153995380Y-61675476D02*
X153995380Y-62246904D01*
X153995380Y-61961190D02*
X152995380Y-61961190D01*
X153138238Y-62056428D01*
X153233476Y-62151666D01*
X153281095Y-62246904D01*
X153995380Y-60723095D02*
X153995380Y-61294523D01*
X153995380Y-61008809D02*
X152995380Y-61008809D01*
X153138238Y-61104047D01*
X153233476Y-61199285D01*
X153281095Y-61294523D01*
%TO.C,R8*%
X148534380Y-62088166D02*
X148058190Y-62421500D01*
X148534380Y-62659595D02*
X147534380Y-62659595D01*
X147534380Y-62278642D01*
X147582000Y-62183404D01*
X147629619Y-62135785D01*
X147724857Y-62088166D01*
X147867714Y-62088166D01*
X147962952Y-62135785D01*
X148010571Y-62183404D01*
X148058190Y-62278642D01*
X148058190Y-62659595D01*
X147962952Y-61516738D02*
X147915333Y-61611976D01*
X147867714Y-61659595D01*
X147772476Y-61707214D01*
X147724857Y-61707214D01*
X147629619Y-61659595D01*
X147582000Y-61611976D01*
X147534380Y-61516738D01*
X147534380Y-61326261D01*
X147582000Y-61231023D01*
X147629619Y-61183404D01*
X147724857Y-61135785D01*
X147772476Y-61135785D01*
X147867714Y-61183404D01*
X147915333Y-61231023D01*
X147962952Y-61326261D01*
X147962952Y-61516738D01*
X148010571Y-61611976D01*
X148058190Y-61659595D01*
X148153428Y-61707214D01*
X148343904Y-61707214D01*
X148439142Y-61659595D01*
X148486761Y-61611976D01*
X148534380Y-61516738D01*
X148534380Y-61326261D01*
X148486761Y-61231023D01*
X148439142Y-61183404D01*
X148343904Y-61135785D01*
X148153428Y-61135785D01*
X148058190Y-61183404D01*
X148010571Y-61231023D01*
X147962952Y-61326261D01*
%TO.C,R7*%
X145867380Y-62142666D02*
X145391190Y-62476000D01*
X145867380Y-62714095D02*
X144867380Y-62714095D01*
X144867380Y-62333142D01*
X144915000Y-62237904D01*
X144962619Y-62190285D01*
X145057857Y-62142666D01*
X145200714Y-62142666D01*
X145295952Y-62190285D01*
X145343571Y-62237904D01*
X145391190Y-62333142D01*
X145391190Y-62714095D01*
X144867380Y-61809333D02*
X144867380Y-61142666D01*
X145867380Y-61571238D01*
%TO.C,R5*%
X142946380Y-62142666D02*
X142470190Y-62476000D01*
X142946380Y-62714095D02*
X141946380Y-62714095D01*
X141946380Y-62333142D01*
X141994000Y-62237904D01*
X142041619Y-62190285D01*
X142136857Y-62142666D01*
X142279714Y-62142666D01*
X142374952Y-62190285D01*
X142422571Y-62237904D01*
X142470190Y-62333142D01*
X142470190Y-62714095D01*
X141946380Y-61237904D02*
X141946380Y-61714095D01*
X142422571Y-61761714D01*
X142374952Y-61714095D01*
X142327333Y-61618857D01*
X142327333Y-61380761D01*
X142374952Y-61285523D01*
X142422571Y-61237904D01*
X142517809Y-61190285D01*
X142755904Y-61190285D01*
X142851142Y-61237904D01*
X142898761Y-61285523D01*
X142946380Y-61380761D01*
X142946380Y-61618857D01*
X142898761Y-61714095D01*
X142851142Y-61761714D01*
%TO.C,R4*%
X140279380Y-62142666D02*
X139803190Y-62476000D01*
X140279380Y-62714095D02*
X139279380Y-62714095D01*
X139279380Y-62333142D01*
X139327000Y-62237904D01*
X139374619Y-62190285D01*
X139469857Y-62142666D01*
X139612714Y-62142666D01*
X139707952Y-62190285D01*
X139755571Y-62237904D01*
X139803190Y-62333142D01*
X139803190Y-62714095D01*
X139612714Y-61285523D02*
X140279380Y-61285523D01*
X139231761Y-61523619D02*
X139946047Y-61761714D01*
X139946047Y-61142666D01*
%TO.C,R2*%
X144089380Y-57688666D02*
X143613190Y-58022000D01*
X144089380Y-58260095D02*
X143089380Y-58260095D01*
X143089380Y-57879142D01*
X143137000Y-57783904D01*
X143184619Y-57736285D01*
X143279857Y-57688666D01*
X143422714Y-57688666D01*
X143517952Y-57736285D01*
X143565571Y-57783904D01*
X143613190Y-57879142D01*
X143613190Y-58260095D01*
X143184619Y-57307714D02*
X143137000Y-57260095D01*
X143089380Y-57164857D01*
X143089380Y-56926761D01*
X143137000Y-56831523D01*
X143184619Y-56783904D01*
X143279857Y-56736285D01*
X143375095Y-56736285D01*
X143517952Y-56783904D01*
X144089380Y-57355333D01*
X144089380Y-56736285D01*
%TO.C,R1*%
X141041380Y-58713666D02*
X140565190Y-59047000D01*
X141041380Y-59285095D02*
X140041380Y-59285095D01*
X140041380Y-58904142D01*
X140089000Y-58808904D01*
X140136619Y-58761285D01*
X140231857Y-58713666D01*
X140374714Y-58713666D01*
X140469952Y-58761285D01*
X140517571Y-58808904D01*
X140565190Y-58904142D01*
X140565190Y-59285095D01*
X141041380Y-57761285D02*
X141041380Y-58332714D01*
X141041380Y-58047000D02*
X140041380Y-58047000D01*
X140184238Y-58142238D01*
X140279476Y-58237476D01*
X140327095Y-58332714D01*
%TO.C,J1*%
X131291333Y-66817380D02*
X131291333Y-67531666D01*
X131243714Y-67674523D01*
X131148476Y-67769761D01*
X131005619Y-67817380D01*
X130910381Y-67817380D01*
X132291333Y-67817380D02*
X131719905Y-67817380D01*
X132005619Y-67817380D02*
X132005619Y-66817380D01*
X131910381Y-66960238D01*
X131815143Y-67055476D01*
X131719905Y-67103095D01*
%TO.C,C2*%
X144740333Y-54713142D02*
X144692714Y-54760761D01*
X144549857Y-54808380D01*
X144454619Y-54808380D01*
X144311761Y-54760761D01*
X144216523Y-54665523D01*
X144168904Y-54570285D01*
X144121285Y-54379809D01*
X144121285Y-54236952D01*
X144168904Y-54046476D01*
X144216523Y-53951238D01*
X144311761Y-53856000D01*
X144454619Y-53808380D01*
X144549857Y-53808380D01*
X144692714Y-53856000D01*
X144740333Y-53903619D01*
X145121285Y-53903619D02*
X145168904Y-53856000D01*
X145264142Y-53808380D01*
X145502238Y-53808380D01*
X145597476Y-53856000D01*
X145645095Y-53903619D01*
X145692714Y-53998857D01*
X145692714Y-54094095D01*
X145645095Y-54236952D01*
X145073666Y-54808380D01*
X145692714Y-54808380D01*
%TO.C,C1*%
X158964333Y-54713142D02*
X158916714Y-54760761D01*
X158773857Y-54808380D01*
X158678619Y-54808380D01*
X158535761Y-54760761D01*
X158440523Y-54665523D01*
X158392904Y-54570285D01*
X158345285Y-54379809D01*
X158345285Y-54236952D01*
X158392904Y-54046476D01*
X158440523Y-53951238D01*
X158535761Y-53856000D01*
X158678619Y-53808380D01*
X158773857Y-53808380D01*
X158916714Y-53856000D01*
X158964333Y-53903619D01*
X159916714Y-54808380D02*
X159345285Y-54808380D01*
X159631000Y-54808380D02*
X159631000Y-53808380D01*
X159535761Y-53951238D01*
X159440523Y-54046476D01*
X159345285Y-54094095D01*
%TD*%
M02*
